<svg xmlns="http://www.w3.org/2000/svg" version="1.1" xmlns:xlink="http://www.w3.org/1999/xlink" xmlns:svgjs="http://svgjs.com/svgjs" width="1200" height="800" preserveAspectRatio="none" viewBox="0 0 1200 800"><g mask="url(&quot;#SvgjsMask1016&quot;)" fill="none"><rect width="1200" height="800" x="0" y="0" fill="#0e2a47"></rect><path d="M174.6 916.03C284.48 902.06 347.63 652.62 530.04 651.55 712.45 650.48 707.75 751.55 885.47 751.55 1063.19 751.55 1148.61 652.5 1240.91 651.55" stroke="rgba(51,121,194,0.58)" stroke-width="2"></path><path d="M638.29 816.68C745.17 809.49 773.98 641.44 1010.99 605.23 1248 569.02 1252.74 246.96 1383.69 213.23" stroke="rgba(51,121,194,0.58)" stroke-width="2"></path><path d="M417.54 835.22C563.4 684.61 468.12 56.82 705.45 47.55 942.78 38.28 1108.06 421.54 1281.27 439.55" stroke="rgba(51,121,194,0.58)" stroke-width="2"></path><path d="M648.88 810.66C801.12 743.28 821.75 269.56 1027.57 262.86 1233.38 256.16 1296.56 478.68 1406.25 486.86" stroke="rgba(51,121,194,0.58)" stroke-width="2"></path><path d="M542.16 853.66C664.08 777.33 597.35 353.19 817.35 348.35 1037.36 343.51 1221.37 545.28 1367.74 548.35" stroke="rgba(51,121,194,0.58)" stroke-width="2"></path></g><defs><mask id="SvgjsMask1016"><rect width="1200" height="800" fill="#ffffff"></rect></mask></defs></svg>