<svg id="visual" viewBox="0 0 900 675" width="900" height="675" xmlns="http://www.w3.org/2000/svg" xmlns:xlink="http://www.w3.org/1999/xlink" version="1.1"><rect x="0" y="0" width="900" height="675" fill="#001220"></rect><path d="M0 546L21.5 540.3C43 534.7 86 523.3 128.8 523.3C171.7 523.3 214.3 534.7 257.2 540.3C300 546 343 546 385.8 548.3C428.7 550.7 471.3 555.3 514.2 554.2C557 553 600 546 642.8 537.2C685.7 528.3 728.3 517.7 771.2 523.2C814 528.7 857 550.3 878.5 561.2L900 572L900 676L878.5 676C857 676 814 676 771.2 676C728.3 676 685.7 676 642.8 676C600 676 557 676 514.2 676C471.3 676 428.7 676 385.8 676C343 676 300 676 257.2 676C214.3 676 171.7 676 128.8 676C86 676 43 676 21.5 676L0 676Z" fill="#fa7268"></path><path d="M0 544L21.5 549C43 554 86 564 128.8 565.8C171.7 567.7 214.3 561.3 257.2 565.5C300 569.7 343 584.3 385.8 587.5C428.7 590.7 471.3 582.3 514.2 573.5C557 564.7 600 555.3 642.8 554.2C685.7 553 728.3 560 771.2 562.8C814 565.7 857 564.3 878.5 563.7L900 563L900 676L878.5 676C857 676 814 676 771.2 676C728.3 676 685.7 676 642.8 676C600 676 557 676 514.2 676C471.3 676 428.7 676 385.8 676C343 676 300 676 257.2 676C214.3 676 171.7 676 128.8 676C86 676 43 676 21.5 676L0 676Z" fill="#eb5967"></path><path d="M0 584L21.5 583.8C43 583.7 86 583.3 128.8 589.5C171.7 595.7 214.3 608.3 257.2 608.3C300 608.3 343 595.7 385.8 596.8C428.7 598 471.3 613 514.2 619C557 625 600 622 642.8 617.7C685.7 613.3 728.3 607.7 771.2 609.2C814 610.7 857 619.3 878.5 623.7L900 628L900 676L878.5 676C857 676 814 676 771.2 676C728.3 676 685.7 676 642.8 676C600 676 557 676 514.2 676C471.3 676 428.7 676 385.8 676C343 676 300 676 257.2 676C214.3 676 171.7 676 128.8 676C86 676 43 676 21.5 676L0 676Z" fill="#da3f67"></path><path d="M0 617L21.5 620.8C43 624.7 86 632.3 128.8 636.7C171.7 641 214.3 642 257.2 640.2C300 638.3 343 633.7 385.8 631C428.7 628.3 471.3 627.7 514.2 628.7C557 629.7 600 632.3 642.8 635.3C685.7 638.3 728.3 641.7 771.2 643C814 644.3 857 643.7 878.5 643.3L900 643L900 676L878.5 676C857 676 814 676 771.2 676C728.3 676 685.7 676 642.8 676C600 676 557 676 514.2 676C471.3 676 428.7 676 385.8 676C343 676 300 676 257.2 676C214.3 676 171.7 676 128.8 676C86 676 43 676 21.5 676L0 676Z" fill="#c62368"></path></svg>