<svg id="visual" viewBox="0 0 300 900" width="300" height="900" xmlns="http://www.w3.org/2000/svg" xmlns:xlink="http://www.w3.org/1999/xlink" version="1.1"><rect x="0" y="0" width="300" height="900" fill="#d5f0ff"></rect><path d="M0 752L33 775L67 739L100 774L133 768L167 736L200 799L233 790L267 749L300 754L300 901L267 901L233 901L200 901L167 901L133 901L100 901L67 901L33 901L0 901Z" fill="#ffffff"></path><path d="M0 805L33 787L67 786L100 825L133 783L167 828L200 784L233 783L267 799L300 827L300 901L267 901L233 901L200 901L167 901L133 901L100 901L67 901L33 901L0 901Z" fill="#ebdbd5"></path><path d="M0 815L33 834L67 823L100 804L133 856L167 842L200 841L233 821L267 826L300 807L300 901L267 901L233 901L200 901L167 901L133 901L100 901L67 901L33 901L0 901Z" fill="#d7b8ac"></path><path d="M0 878L33 857L67 872L100 862L133 859L167 838L200 879L233 843L267 883L300 852L300 901L267 901L233 901L200 901L167 901L133 901L100 901L67 901L33 901L0 901Z" fill="#c19685"></path></svg>