<?xml version="1.0" standalone="no"?>
<!DOCTYPE svg PUBLIC "-//W3C//DTD SVG 20010904//EN"
 "http://www.w3.org/TR/2001/REC-SVG-20010904/DTD/svg10.dtd">
<svg version="1.0" xmlns="http://www.w3.org/2000/svg"
 width="563.000000pt" height="612.000000pt" viewBox="0 0 563.000000 612.000000"
 preserveAspectRatio="xMidYMid meet">

<g transform="translate(0.000000,612.000000) scale(0.100000,-0.100000)"
fill="#FFFFFF" stroke="none">
<path d="M4455 5710 c-90 -14 -217 -74 -265 -125 -20 -22 -33 -25 -94 -26 -62
-2 -66 -3 -31 -9 22 -4 31 -8 20 -9 -63 -4 -121 -78 -112 -140 16 -105 38
-205 46 -215 26 -31 43 -135 43 -268 0 -77 4 -135 9 -132 5 3 9 -1 9 -9 0 -8
3 -29 7 -47 l6 -33 -31 19 c-42 24 -46 51 -33 210 11 142 6 186 -29 254 -17
32 -27 75 -35 150 -10 100 -10 107 12 152 12 26 27 49 33 53 5 3 10 11 10 17
0 6 -9 3 -19 -6 -33 -30 -58 -107 -64 -191 -4 -49 -3 -68 2 -50 8 28 9 28 10
5 2 -45 -11 -54 -53 -36 -20 8 -36 19 -36 24 0 5 -6 9 -12 10 -7 1 -35 7 -63
15 -27 8 -104 16 -170 19 -92 4 -107 3 -65 -4 30 -5 73 -14 95 -20 36 -9 38
-12 21 -22 -74 -45 -72 -70 3 -37 28 12 71 21 99 21 46 0 51 -2 78 -41 28 -41
40 -74 24 -64 -5 3 -16 -8 -25 -25 -14 -28 -13 -34 8 -31 4 0 7 -10 7 -23 0
-13 3 -38 6 -55 5 -26 3 -31 -12 -31 -11 0 -39 -11 -62 -25 -24 -14 -64 -34
-89 -45 l-45 -20 21 36 c26 44 27 67 2 37 l-19 -23 3 48 c1 26 5 61 9 77 3 17
-10 -14 -30 -67 -20 -54 -40 -98 -43 -98 -4 0 -14 16 -23 36 -16 34 -15 37 11
90 35 68 23 70 -20 4 -18 -27 -34 -50 -35 -50 -4 0 5 112 12 140 l6 25 -21
-24 c-12 -13 -21 -32 -21 -42 0 -10 -4 -21 -10 -24 -5 -3 -10 3 -10 14 0 10
-5 21 -11 23 -15 5 10 55 40 82 22 20 28 46 12 46 -13 0 -42 -43 -70 -103 -28
-58 -46 -51 -57 21 -3 26 -11 53 -17 60 -5 6 -7 27 -3 44 4 21 3 29 -3 23 -6
-6 -11 -49 -12 -97 -1 -77 -4 -88 -20 -88 -31 0 -49 12 -50 34 0 17 -2 18 -7
4 -6 -14 -10 -15 -25 -3 -13 9 -16 20 -11 39 4 17 2 26 -6 26 -7 0 -10 7 -6
15 3 8 3 15 1 15 -9 0 -35 -72 -35 -96 0 -18 -8 -26 -40 -35 -22 -7 -43 -10
-46 -6 -17 17 -14 89 7 157 12 41 22 78 21 82 -7 29 123 39 247 19 28 -4 51
-4 51 0 0 12 -87 24 -180 24 -67 0 -92 -4 -114 -19 -20 -13 -25 -20 -16 -26 7
-5 8 -10 2 -14 -5 -3 -18 -37 -27 -76 -9 -39 -21 -73 -26 -76 -11 -6 -4 28 17
89 15 43 4 50 -14 10 -7 -16 -19 -39 -27 -53 -17 -29 -19 -77 -6 -113 8 -20 6
-24 -6 -23 -9 0 -21 -13 -29 -34 l-12 -35 -1 33 c-1 17 -6 32 -12 32 -8 0 -9
-12 -4 -37 9 -48 25 -79 34 -65 4 6 12 -1 19 -18 l13 -29 30 30 c27 28 33 30
61 20 38 -13 81 -14 73 -2 -11 19 37 22 88 5 28 -10 64 -17 79 -15 21 2 37 -7
68 -41 22 -24 40 -48 40 -55 0 -6 3 -19 7 -28 5 -14 2 -16 -13 -12 -38 11 -99
20 -92 13 3 -4 0 -23 -8 -41 -18 -45 -18 -81 2 -89 9 -3 33 -6 54 -6 26 0 42
-6 48 -16 7 -13 26 -17 86 -18 42 0 71 1 64 3 -7 2 -18 10 -26 17 -7 7 -29 16
-50 19 -55 10 -62 13 -62 30 0 13 13 14 88 9 102 -8 127 -18 213 -85 l64 -50
-54 51 c-78 74 -114 89 -232 98 -88 7 -106 5 -145 -12 -25 -10 -47 -16 -51
-13 -3 4 2 27 11 51 17 43 18 44 49 35 17 -5 64 -9 103 -9 39 0 105 -3 147 -6
71 -6 76 -8 82 -33 10 -40 28 -55 131 -107 94 -47 95 -48 69 -61 -15 -8 -64
-15 -120 -16 -79 -2 -92 -4 -78 -14 23 -17 4 -16 -27 2 -14 8 -32 14 -40 14
-8 0 -2 -7 13 -15 39 -21 27 -29 -15 -11 -53 22 -109 29 -147 17 -42 -12 -50
-6 -27 19 20 22 18 52 -4 59 -12 4 -13 3 -2 -10 10 -12 8 -20 -8 -41 -34 -43
-27 -47 66 -40 l87 6 -7 -26 c-15 -61 -36 -185 -37 -217 0 -19 -4 -44 -8 -55
-7 -18 -10 -16 -24 18 -9 21 -21 36 -26 33 -5 -4 -13 -1 -17 5 -4 8 -3 9 4 5
38 -24 -19 51 -115 150 -62 64 -83 77 -83 49 0 -8 4 -15 10 -15 18 0 62 -55
90 -113 24 -50 27 -63 18 -100 -8 -36 -66 -152 -68 -137 -1 3 -2 22 -4 43 -2
20 -6 40 -9 44 -14 13 -36 -21 -42 -65 -10 -72 -17 -79 -53 -53 -50 35 -82 80
-82 114 0 57 -17 65 -30 16 -14 -55 -57 -141 -90 -181 l-25 -30 5 99 c3 54 4
100 3 102 -2 2 -3 -2 -3 -10 0 -11 -2 -11 -9 -1 -5 8 -15 -39 -25 -120 -19
-138 -42 -215 -32 -103 3 33 8 85 11 115 l5 55 -13 -48 c-6 -27 -15 -45 -19
-41 -5 4 -8 -8 -8 -26 0 -19 -7 -60 -16 -92 -14 -49 -21 -59 -43 -64 -14 -2
-59 -13 -98 -23 -40 -10 -73 -15 -73 -11 0 16 27 70 32 65 5 -6 48 98 48 117
0 6 -9 8 -21 5 -24 -6 -34 14 -55 114 -14 69 -52 164 -61 155 -3 -3 -1 -18 5
-33 6 -15 21 -66 33 -113 12 -47 28 -101 36 -122 l14 -36 -61 -83 c-34 -45
-68 -95 -76 -111 -8 -15 -18 -28 -23 -28 -4 0 -14 33 -21 73 -7 39 -18 81 -24
92 -6 11 -14 49 -18 85 -4 40 -5 16 -2 -62 2 -70 7 -149 11 -175 6 -47 5 -47
-13 -31 -32 28 -133 44 -185 29 -79 -23 -84 -21 -83 24 0 22 8 67 17 100 21
75 23 161 3 168 -8 3 -18 21 -21 40 -7 37 -43 103 -51 94 -3 -3 2 -19 10 -36
20 -38 21 -91 2 -91 -8 0 -17 7 -20 16 -3 8 -10 12 -16 9 -5 -3 -7 0 -5 8 3 7
-3 22 -15 32 -29 26 -25 44 16 61 28 12 43 13 67 5 16 -6 47 -11 67 -11 24 0
43 -7 55 -20 32 -35 28 -13 -5 28 -21 27 -43 42 -64 46 l-33 6 55 55 55 55 69
0 c38 0 84 -7 105 -15 42 -18 46 -18 38 -5 -4 7 2 9 19 4 44 -11 32 24 -16 47
l-43 20 65 -7 c36 -3 76 -12 90 -19 14 -7 50 -20 81 -29 30 -8 71 -26 90 -39
60 -40 63 -41 40 -8 -13 17 -36 42 -52 53 -21 16 -26 24 -17 30 9 5 4 8 -12 9
l-25 1 25 8 c46 15 78 10 147 -21 37 -16 77 -34 88 -39 11 -5 36 -11 55 -14
19 -3 51 -9 71 -12 22 -4 39 -2 43 5 4 7 -8 13 -35 17 -23 4 -50 15 -61 26
-20 20 -25 43 -6 32 7 -4 8 -3 4 5 -4 6 -11 9 -16 6 -10 -6 -30 26 -30 49 0 9
4 16 9 16 5 0 7 -8 4 -19 -3 -10 -1 -21 4 -24 5 -3 9 4 9 16 -1 21 3 22 72 22
39 0 72 3 72 8 0 4 -10 7 -22 8 -22 0 -22 1 2 11 21 9 3 14 -115 29 -236 32
-426 47 -462 37 -32 -9 -83 -63 -83 -88 0 -7 -7 -10 -17 -7 -96 32 -96 32
-143 0 -92 -61 -160 -103 -168 -103 -5 0 -25 -15 -44 -34 -39 -38 -112 -57
-151 -39 -14 7 -53 8 -102 3 -104 -10 -179 -47 -144 -72 9 -6 1 -7 -26 -3 -38
6 -67 25 -108 70 -17 18 -18 18 -13 1 4 -11 -19 3 -56 35 -70 61 -405 376
-429 405 -32 38 -92 128 -166 252 -42 70 -87 143 -101 162 l-24 35 32 -35 c17
-19 39 -48 47 -65 9 -16 54 -88 100 -159 90 -138 152 -208 328 -369 93 -85 83
-74 -58 69 -170 171 -182 187 -325 419 -94 153 -174 237 -243 255 -24 7 -72
10 -107 7 -52 -4 -73 -11 -117 -42 -69 -47 -125 -108 -153 -165 -29 -61 -61
-189 -68 -275 -12 -136 71 -436 150 -543 62 -85 332 -339 496 -467 41 -32 124
-102 185 -154 60 -53 106 -90 101 -83 -14 23 10 12 35 -15 l24 -28 -25 20
c-14 10 7 -14 46 -54 39 -40 77 -73 86 -75 15 -2 180 -158 387 -368 58 -58
117 -112 130 -118 13 -7 44 -30 68 -53 30 -27 42 -34 38 -21 -3 10 0 8 7 -6
18 -34 93 -113 363 -380 481 -477 629 -631 734 -767 35 -46 67 -81 70 -78 4 2
26 -15 48 -38 50 -52 261 -313 245 -303 -7 4 -12 3 -12 -3 0 -5 4 -13 10 -16
5 -3 69 -72 142 -153 73 -81 192 -208 264 -282 72 -74 180 -189 241 -255 164
-179 228 -223 390 -270 112 -33 231 -35 359 -5 141 33 222 91 292 208 22 37
46 87 52 112 21 79 -8 201 -61 261 -17 19 -25 25 -18 14 13 -18 13 -19 -4 -6
-10 8 -41 25 -69 38 -28 13 -60 32 -72 43 -11 10 -50 42 -86 70 -36 28 -151
135 -256 238 -357 349 -559 541 -634 604 -200 168 -663 618 -824 800 l-68 78
40 52 c23 29 63 77 90 107 l49 55 49 -41 c138 -115 317 -203 426 -211 69 -5
69 -5 63 -31 -11 -45 -94 -101 -149 -101 -25 0 -102 -46 -126 -76 -8 -8 -34
-29 -58 -46 l-44 -30 -25 23 c-49 44 -210 214 -249 261 -42 50 -62 62 -43 26
18 -35 514 -525 680 -673 238 -212 377 -342 694 -649 165 -160 246 -234 181
-166 -65 69 -171 175 -235 235 -254 240 -491 478 -485 487 4 6 33 -16 65 -48
33 -32 59 -53 59 -47 0 6 -36 45 -80 86 -72 67 -80 78 -80 111 0 60 39 58 107
-7 38 -36 67 -123 60 -179 -7 -51 9 -49 17 3 8 48 -10 165 -30 197 -8 12 -33
36 -56 52 -53 39 -41 38 32 -1 84 -45 101 -66 107 -137 5 -50 1 -69 -21 -117
-31 -69 -31 -65 -6 -65 11 0 20 5 20 11 0 5 16 17 35 25 19 8 35 19 35 24 0 6
10 6 27 -1 14 -5 70 -14 122 -19 120 -11 135 -4 145 70 4 29 11 59 15 68 5 10
14 29 20 44 6 18 28 36 61 53 28 14 53 32 56 40 3 7 23 16 45 20 21 4 39 11
39 16 0 5 -5 9 -11 9 -6 0 3 14 20 31 17 17 31 34 31 38 0 4 13 14 29 24 28
16 29 19 33 119 4 92 8 110 37 166 18 35 27 61 21 57 -7 -4 -25 -35 -40 -68
-25 -52 -38 -66 -96 -103 -44 -28 -83 -45 -113 -49 -25 -3 -70 -10 -100 -14
-50 -8 -57 -6 -92 19 l-38 27 37 21 c53 30 109 88 124 128 9 25 16 33 28 28 8
-4 61 -9 118 -10 104 -2 117 3 88 35 -7 9 -21 41 -31 71 -10 30 -21 59 -26 64
-16 18 -9 90 11 124 12 19 17 31 12 28 -11 -7 -32 37 -32 68 0 12 -12 33 -26
47 -25 24 -64 85 -47 77 4 -3 36 -22 71 -42 35 -21 65 -36 68 -33 9 9 -80 65
-159 101 -41 18 -77 39 -81 45 -4 6 -8 41 -9 78 -2 63 2 75 49 173 89 181 104
213 104 223 0 8 61 164 95 242 33 77 95 342 104 442 6 71 6 71 -24 91 -16 12
-38 24 -48 28 -15 5 -3 17 57 57 70 46 78 55 112 126 33 69 37 83 35 151 -1
41 -6 102 -10 134 -8 57 -6 62 25 115 32 52 33 56 15 61 -22 6 -108 120 -91
120 18 0 -21 57 -60 88 -71 58 -83 53 -17 -7 37 -35 67 -67 67 -72 0 -6 -4 -7
-10 -4 -5 3 -10 2 -10 -3 0 -10 87 -124 103 -134 6 -4 3 -18 -11 -40 l-21 -33
2 38 c2 20 -1 37 -6 37 -10 0 -5 -120 11 -280 6 -60 4 -71 -27 -140 -40 -91
-59 -112 -104 -116 -20 -2 -53 -11 -74 -22 -32 -15 -43 -17 -72 -7 l-34 12 31
11 c34 12 43 39 16 49 -15 6 -175 -69 -202 -94 -7 -7 -18 -13 -23 -13 -6 0 -7
-5 -3 -12 4 -7 3 -8 -4 -4 -7 4 -53 -13 -103 -38 -119 -60 -135 -59 -73 6 126
132 184 177 306 236 56 27 89 50 93 63 4 11 22 27 40 35 19 8 42 25 52 40 10
14 44 57 76 96 74 91 74 113 0 263 -142 290 -181 348 -256 387 -49 25 -130 49
-177 53 -19 2 -53 6 -75 9 -22 2 -62 1 -90 -4z m317 -63 c55 -22 117 -85 151
-154 38 -74 41 -103 17 -158 -23 -54 -94 -157 -133 -193 -24 -22 -27 -23 -105
-12 -88 12 -264 67 -316 100 -19 11 -53 41 -76 66 -40 44 -42 49 -37 93 17
134 61 199 172 253 56 27 67 28 170 27 83 -2 122 -7 157 -22z m-412 -436 c25
-16 59 -33 75 -39 62 -24 208 -62 228 -61 45 4 68 -1 61 -12 -9 -15 -108 -6
-196 16 -35 9 -102 35 -150 57 -87 41 -88 41 -109 22 -12 -10 -30 -37 -42 -59
-33 -64 -31 -23 2 50 29 64 32 67 58 60 16 -3 48 -19 73 -34z m-3523 -103 c-3
-8 -6 -5 -6 6 -1 11 2 17 5 13 3 -3 4 -12 1 -19z m3643 -10 c25 -11 83 -26
129 -33 46 -8 85 -16 88 -19 6 -6 -41 -129 -61 -161 -19 -29 -26 -65 -13 -65
6 0 8 -2 5 -5 -2 -3 -27 3 -54 13 -55 19 -102 56 -85 67 6 3 22 -6 36 -22 13
-15 25 -23 25 -17 0 5 -13 23 -29 38 -27 26 -35 28 -72 22 -32 -5 -56 -2 -96
15 -61 25 -61 20 -10 132 30 66 31 68 61 61 17 -3 51 -15 76 -26z m-1053 -50
c-3 -8 -6 -5 -6 6 -1 11 2 17 5 13 3 -3 4 -12 1 -19z m901 -124 c50 -19 57
-39 10 -29 -39 8 -108 53 -108 70 0 24 14 25 34 1 12 -14 40 -33 64 -42z
m-687 19 c-5 -10 -9 -22 -9 -26 0 -5 -3 -11 -6 -14 -7 -7 1 34 9 47 11 17 16
11 6 -7z m1149 -23 c0 -5 -5 -10 -11 -10 -5 0 -7 5 -4 10 3 6 8 10 11 10 2 0
4 -4 4 -10z m-480 -40 c36 -5 89 -18 119 -29 30 -11 58 -18 64 -14 6 3 7 1 4
-4 -4 -6 7 -17 25 -24 l31 -13 -22 -17 c-11 -9 -21 -25 -21 -36 0 -10 -4 -24
-9 -32 -17 -26 -98 14 -134 65 -33 47 -44 53 -49 28 -2 -13 -13 -8 -46 22 -24
20 -48 46 -54 57 -9 17 -8 19 8 12 11 -4 48 -11 84 -15z m-152 -25 c16 -34 69
-65 112 -65 19 0 40 -4 46 -8 12 -8 36 -73 30 -79 -2 -2 -37 11 -77 31 -41 19
-75 33 -77 32 -11 -12 54 -63 121 -96 87 -42 91 -53 7 -20 -51 20 -108 28 -82
11 11 -7 11 -9 -2 -14 -9 -4 -15 -3 -13 1 1 4 -12 21 -29 37 -30 28 -45 67
-49 125 -1 14 -5 35 -9 48 -10 30 8 28 22 -3z m535 -12 c-7 -2 -19 -2 -25 0
-7 3 -2 5 12 5 14 0 19 -2 13 -5z m-4259 -218 c5 -22 4 -26 -4 -15 -5 8 -10
24 -10 34 0 26 6 18 14 -19z m3853 -5 c28 -21 23 -24 -26 -14 -25 5 -29 9 -20
20 15 18 16 18 46 -6z m-39 -23 l42 -13 -62 -14 -63 -15 65 -8 c36 -5 84 -14
107 -20 l43 -11 -48 -14 c-26 -8 -61 -25 -79 -38 -28 -22 -32 -22 -36 -6 -3
12 -5 10 -6 -7 0 -12 -21 -45 -45 -72 -25 -27 -51 -63 -58 -79 -15 -34 -50
-40 -84 -15 -10 8 -31 15 -46 15 -16 0 -28 4 -28 8 0 14 63 68 150 127 47 32
92 64 100 72 26 25 -46 7 -125 -33 -79 -39 -180 -128 -171 -151 3 -8 2 -12 -3
-9 -4 3 -14 -6 -21 -19 -20 -37 -31 -30 -15 9 8 18 21 65 29 104 8 39 22 82
32 97 24 37 88 66 158 73 33 3 71 11 85 18 31 17 26 17 79 1z m462 -41 c0 -2
-7 -7 -16 -10 -8 -3 -12 -2 -9 4 6 10 25 14 25 6z m208 -50 c64 -23 102 -55
102 -88 0 -45 -49 -262 -81 -360 -23 -72 -43 -110 -96 -180 -36 -49 -63 -91
-60 -94 3 -3 24 22 48 55 23 33 44 59 46 57 2 -1 -8 -27 -22 -57 -14 -30 -23
-46 -21 -36 3 10 2 15 -4 12 -10 -6 -60 -156 -60 -181 0 -8 -16 -47 -37 -87
-20 -39 -50 -107 -68 -150 l-31 -78 -40 48 c-22 26 -50 63 -63 81 l-22 32 28
0 c15 0 50 8 76 18 43 16 46 20 32 32 -15 12 -15 14 -1 22 25 14 19 25 -19 38
-29 9 -34 15 -25 25 7 8 9 18 6 23 -3 5 15 25 39 46 49 41 81 91 65 101 -6 3
-13 -1 -16 -10 -6 -15 -62 -50 -69 -43 -2 2 10 34 26 71 16 38 28 71 27 75 -1
4 2 22 6 40 13 54 -1 48 -19 -10 -14 -41 -33 -68 -84 -118 -37 -36 -84 -74
-106 -85 -51 -26 -133 -93 -140 -115 -8 -26 -60 -59 -84 -53 -23 6 -22 22 5
100 18 50 6 109 -32 160 -13 18 -21 38 -18 47 5 12 -7 21 -42 36 -92 38 -92
38 -44 34 39 -3 41 -3 15 5 -16 5 -47 12 -69 16 -48 8 -39 17 41 44 46 16 68
18 87 11 30 -11 42 2 22 23 -8 8 -13 17 -11 19 3 3 -6 10 -19 17 l-23 13 20
49 c16 38 28 51 57 63 47 19 100 69 100 94 0 19 38 52 144 125 63 43 175 94
236 106 30 6 64 13 75 15 43 8 84 5 123 -8z m-2848 -160 c0 -3 -4 -8 -10 -11
-5 -3 -10 -1 -10 4 0 6 5 11 10 11 6 0 10 -2 10 -4z m55 -14 c-3 -3 -11 0 -18
7 -9 10 -8 11 6 5 10 -3 15 -9 12 -12z m-261 -112 c4 9 68 -50 70 -65 1 -8 24
-33 52 -56 92 -79 163 -152 157 -162 -4 -6 -1 -7 6 -3 8 5 14 0 18 -13 3 -11
9 -19 13 -16 5 3 82 -70 172 -163 l163 -168 47 16 c26 9 73 35 103 58 56 41
176 89 195 77 5 -3 10 -12 10 -19 0 -30 95 -203 129 -234 l36 -33 -70 6 -70 5
75 -26 c61 -20 81 -23 108 -15 24 7 44 6 71 -4 63 -22 144 -66 174 -94 36 -33
72 -104 81 -158 5 -38 2 -46 -38 -100 -68 -90 -81 -99 -114 -82 -15 7 -29 15
-31 16 -2 2 10 21 28 43 27 33 29 40 14 40 -10 0 -43 -28 -75 -62 -31 -35 -58
-61 -61 -58 -12 11 6 60 22 60 21 1 59 31 45 37 -6 2 -20 10 -30 18 -19 13
-18 15 5 60 13 25 21 48 17 52 -6 7 -66 -45 -66 -57 0 -16 -79 -89 -85 -79 -4
6 -5 12 -4 13 2 1 21 15 42 30 20 16 37 33 37 38 0 5 -4 7 -9 3 -5 -3 -22 5
-36 18 l-27 23 39 39 c21 22 45 48 52 58 13 17 12 18 -15 12 -16 -4 -45 -15
-65 -25 -28 -14 -38 -15 -52 -5 -16 11 -16 14 3 38 22 27 27 52 8 41 -7 -4 -8
-3 -4 5 4 6 11 9 16 6 10 -6 35 34 26 42 -3 3 -12 0 -20 -6 -10 -8 -20 -9 -33
-3 -10 6 -54 20 -98 33 -44 12 -91 29 -105 36 -23 13 -22 14 26 9 27 -2 57 0
65 5 10 6 6 9 -16 9 -16 0 -46 3 -66 6 -33 6 -37 4 -49 -26 -12 -30 -12 -33
16 -56 16 -13 40 -27 54 -30 97 -24 142 -42 128 -50 -8 -5 -28 -37 -43 -71
-15 -35 -31 -63 -35 -63 -4 0 -14 7 -21 16 -12 15 -11 16 9 10 12 -4 22 -5 22
-3 0 10 -166 177 -175 177 -5 0 15 -26 46 -57 30 -32 61 -67 69 -78 20 -30
-94 87 -287 295 -94 102 -210 220 -257 263 -47 44 -83 83 -80 88 3 5 1 8 -4 7
-13 -4 -133 102 -127 112 6 10 -103 106 -116 103 -5 -2 -8 3 -6 10 1 6 -3 11
-9 10 -6 -1 -31 18 -55 43 -24 24 -39 44 -34 44 5 0 -4 13 -20 30 -15 16 -31
27 -35 25 -4 -2 -7 3 -7 11 0 9 15 1 39 -23 21 -21 40 -36 42 -33z m253 44
c28 -17 46 -52 68 -128 15 -51 15 -67 5 -117 l-13 -59 -21 23 c-12 12 -30 39
-41 59 -10 21 -21 36 -23 33 -2 -2 2 -14 9 -27 8 -15 -10 -4 -49 31 -34 29
-62 60 -62 69 0 12 7 9 28 -11 46 -44 48 -31 3 16 -47 48 -49 70 -9 100 26 20
28 20 55 2 30 -20 48 -41 75 -89 9 -17 17 -26 17 -21 1 23 -47 91 -76 110 -18
11 -32 24 -33 28 0 10 38 -1 67 -19z m1860 20 c-3 -3 -12 -4 -19 -1 -8 3 -5 6
6 6 11 1 17 -2 13 -5z m-2113 -30 c3 -8 2 -12 -4 -9 -6 3 -10 10 -10 16 0 14
7 11 14 -7z m1743 -16 c-3 -8 -6 -5 -6 6 -1 11 2 17 5 13 3 -3 4 -12 1 -19z
m-451 -128 c0 -10 -2 -17 -4 -15 -2 2 -15 -8 -29 -23 -26 -29 -22 -15 9 31 23
32 24 33 24 7z m-339 -82 c-9 -13 -26 -34 -38 -48 l-21 -25 16 28 c33 56 49
77 54 73 2 -3 -2 -16 -11 -28z m1068 -58 c-3 -5 -12 -10 -18 -10 -7 0 -6 4 3
10 19 12 23 12 15 0z m-865 -30 c-6 -11 -13 -20 -16 -20 -2 0 0 9 6 20 6 11
13 20 16 20 2 0 0 -9 -6 -20z m77 -55 c0 -8 -4 -12 -9 -9 -5 3 -6 10 -3 15 9
13 12 11 12 -6z m1034 -32 c85 -27 102 -59 100 -181 -1 -53 -7 -104 -12 -114
-7 -14 -6 -20 6 -24 8 -3 12 -11 9 -16 -4 -6 -10 -5 -15 3 -6 10 -9 11 -9 2 0
-7 -7 -13 -15 -13 -8 0 -23 -4 -33 -10 -9 -5 -43 -16 -74 -25 -32 -8 -63 -18
-70 -20 -10 -4 -13 13 -11 77 l2 83 -12 -78 c-9 -55 -19 -83 -35 -99 -28 -28
-29 -9 -1 26 12 15 19 29 16 32 -6 6 -27 -25 -48 -70 -18 -38 -39 -45 -40 -14
-1 20 -2 20 -6 3 -10 -46 -13 -51 -23 -35 -8 12 -10 11 -10 -5 0 -17 -2 -17
-10 -5 -8 13 -10 12 -10 -2 0 -29 -18 -21 -23 10 -3 22 -4 20 -6 -10 0 -23 -6
-38 -13 -39 -30 -2 -65 -7 -93 -14 l-30 -7 0 74 c0 40 -4 82 -9 92 -7 13 -6
17 2 12 20 -12 23 32 6 99 -12 47 -22 69 -35 72 -14 4 -4 18 48 66 37 34 70
61 74 60 4 -1 37 -7 73 -13 55 -9 69 -8 81 4 13 12 12 16 -1 26 -27 23 -6 23
31 0 38 -24 55 -47 55 -79 0 -11 5 -23 10 -26 6 -4 10 7 10 26 0 25 -9 41 -42
71 -23 21 -35 38 -27 38 8 0 20 4 28 9 13 8 13 12 0 27 -13 16 -10 17 46 12
33 -4 85 -14 116 -25z m-2871 -149 c40 -42 36 -40 -27 15 -40 35 -73 65 -73
68 0 10 57 -38 100 -83z m2625 68 c-3 -3 -11 0 -18 7 -9 10 -8 11 6 5 10 -3
15 -9 12 -12z m934 -42 c-6 -25 -15 -49 -20 -55 -7 -7 -8 -5 -5 5 3 8 10 35
16 59 15 56 22 49 9 -9z m-3399 -166 c25 -26 36 -42 25 -36 -26 13 -92 82 -79
82 5 0 30 -21 54 -46z m2208 -34 c32 -104 38 -167 19 -213 -22 -51 -64 -104
-87 -110 -17 -4 -20 0 -20 26 -1 63 -88 217 -122 217 -6 0 -2 -10 10 -23 12
-13 22 -34 22 -48 0 -13 9 -57 19 -97 12 -44 15 -74 9 -78 -5 -3 -7 -13 -3
-23 5 -14 4 -14 -8 -1 -7 8 -21 41 -31 73 -9 32 -30 73 -47 91 -16 19 -29 39
-29 46 0 7 -18 32 -40 56 -47 52 -50 64 -12 64 16 0 37 7 48 15 33 25 71 18
116 -22 42 -38 42 -38 20 -6 -12 17 -32 35 -44 39 -21 6 -21 7 3 20 13 7 34
13 47 14 12 0 30 9 40 19 9 11 28 19 42 18 22 -2 28 -11 48 -77z m29 18 c-3
-8 -6 -5 -6 6 -1 11 2 17 5 13 3 -3 4 -12 1 -19z m10 -40 c-3 -8 -6 -5 -6 6
-1 11 2 17 5 13 3 -3 4 -12 1 -19z m999 -204 c-4 -9 -9 -15 -11 -12 -3 3 -3
13 1 22 4 9 9 15 11 12 3 -3 3 -13 -1 -22z m-1586 -189 c0 -2 -9 -9 -20 -15
-16 -9 -18 -8 -14 5 5 13 34 22 34 10z m14 -81 c3 -8 2 -12 -4 -9 -6 3 -10 10
-10 16 0 14 7 11 14 -7z m66 -94 c0 -14 -5 -18 -17 -13 -16 6 -17 5 -3 -13 14
-18 14 -18 -3 -5 -16 13 -16 15 -1 32 21 24 24 24 24 -1z m90 -16 c0 -13 -34
-54 -45 -54 -14 0 -9 36 7 57 8 10 38 8 38 -3z m1145 -52 c-3 -3 -11 0 -18 7
-9 10 -8 11 6 5 10 -3 15 -9 12 -12z m533 -491 c-7 -2 -32 -24 -55 -48 -23
-23 -51 -43 -62 -43 -14 0 -19 -5 -15 -15 5 -12 -5 -14 -63 -9 -101 9 -319 66
-311 82 2 4 10 19 17 34 12 24 19 26 95 31 178 12 262 25 329 52 37 15 68 32
69 39 1 6 3 -18 5 -54 3 -47 0 -66 -9 -69z m-953 -31 c-3 -5 -12 -10 -18 -10
-7 0 -6 4 3 10 19 12 23 12 15 0z m358 -44 c18 -14 71 -42 118 -64 l85 -39 19
-62 c10 -34 24 -66 32 -72 7 -6 12 -28 12 -48 -1 -21 -3 -28 -6 -16 -12 48
-57 76 -157 99 -37 9 -80 23 -96 31 -17 9 -32 14 -34 13 -3 -2 -19 17 -36 41
-27 36 -31 50 -26 80 5 33 27 61 49 61 4 0 23 -11 40 -24z m297 -146 c-6 -11
-13 -20 -16 -20 -2 0 0 9 6 20 6 11 13 20 16 20 2 0 0 -9 -6 -20z m-1130 -83
c0 -5 -17 6 -38 24 -21 19 -37 37 -35 41 5 9 73 -52 73 -65z m540 18 c0 -12
-19 -12 -23 0 -4 9 -1 12 9 8 7 -3 14 -7 14 -8z m-1055 -35 c10 -11 16 -20 13
-20 -3 0 -13 9 -23 20 -10 11 -16 20 -13 20 3 0 13 -9 23 -20z m1550 -80 c3
-5 1 -10 -4 -10 -6 0 -11 5 -11 10 0 6 2 10 4 10 3 0 8 -4 11 -10z m-67 -814
c6 -27 -13 -18 -33 17 l-19 32 24 -16 c14 -9 26 -24 28 -33z m-339 -30 c13
-14 18 -26 13 -30 -6 -3 -20 7 -32 24 -25 36 -13 40 19 6z m1071 -285 c-1 -14
-2 -14 -11 2 -6 9 -13 16 -17 13 -4 -2 -8 8 -9 22 l-1 27 19 -24 c10 -13 19
-31 19 -40z m-870 -298 c0 -11 -78 67 -112 112 -17 23 0 8 41 -33 39 -40 71
-76 71 -79z m200 109 c0 -17 -49 -54 -61 -46 -9 5 -4 14 17 31 30 24 44 29 44
15z m604 -37 c-4 -8 -8 -15 -10 -15 -2 0 -4 7 -4 15 0 8 4 15 10 15 5 0 7 -7
4 -15z"/>
<path d="M4336 5534 c-13 -33 -6 -84 14 -104 12 -12 30 -35 41 -53 12 -18 18
-23 13 -12 -4 11 -6 42 -5 69 1 37 -4 57 -21 82 -26 38 -33 41 -42 18z m48
-66 c-9 -14 -24 2 -24 25 1 21 1 21 15 3 8 -10 12 -23 9 -28z"/>
<path d="M4620 5439 c0 -25 33 -22 38 4 2 12 -3 17 -17 17 -15 0 -21 -6 -21
-21z"/>
<path d="M4841 5408 c-36 -38 -41 -77 -11 -85 17 -5 18 -8 8 -22 -9 -11 -6
-10 9 3 13 10 20 22 18 26 -3 4 2 10 10 14 17 6 21 81 6 91 -5 3 -23 -9 -40
-27z m29 -53 c-21 -25 -32 -17 -13 9 10 13 20 20 21 15 2 -5 -2 -16 -8 -24z"/>
<path d="M4610 5385 c0 -8 4 -15 9 -15 5 0 16 -3 25 -6 12 -4 16 0 16 15 0 16
-6 21 -25 21 -16 0 -25 -6 -25 -15z"/>
<path d="M4590 5332 c0 -10 45 -32 65 -32 20 0 19 26 -1 34 -23 9 -64 7 -64
-2z"/>
<path d="M4240 4971 c0 -6 4 -13 10 -16 6 -3 7 1 4 9 -7 18 -14 21 -14 7z"/>
<path d="M4138 4543 c7 -3 16 -2 19 1 4 3 -2 6 -13 5 -11 0 -14 -3 -6 -6z"/>
<path d="M4961 4424 c0 -11 3 -14 6 -6 3 7 2 16 -1 19 -3 4 -6 -2 -5 -13z"/>
<path d="M4863 4347 c18 -18 34 -31 36 -30 6 4 -51 63 -60 63 -4 0 7 -15 24
-33z"/>
<path d="M4901 4284 c0 -11 3 -14 6 -6 3 7 2 16 -1 19 -3 4 -6 -2 -5 -13z"/>
<path d="M4368 4214 c-4 -14 -24 -24 -72 -38 -37 -10 -65 -20 -63 -23 4 -3
147 33 152 39 1 2 -1 12 -5 22 -7 20 -7 20 -12 0z"/>
<path d="M4675 4137 c28 -15 48 -38 65 -72 27 -55 60 -73 60 -33 0 56 -81 128
-142 128 -19 0 -16 -4 17 -23z"/>
<path d="M4807 4023 c-6 -119 -2 -139 21 -124 16 10 55 111 42 111 -5 0 -17
26 -26 58 -9 31 -20 61 -24 65 -4 4 -10 -45 -13 -110z"/>
<path d="M4547 4060 c4 -9 21 -34 37 -58 30 -45 46 -124 27 -136 -6 -4 -11
-13 -11 -19 0 -12 32 23 52 58 10 18 10 19 -5 6 -15 -12 -17 -11 -17 8 0 27
-31 86 -66 126 -14 17 -22 23 -17 15z"/>
<path d="M4356 3924 c-3 -9 2 -35 13 -59 10 -24 22 -57 26 -74 4 -17 13 -31
20 -31 7 0 21 -3 31 -7 13 -5 16 -3 11 10 -3 8 -1 32 4 52 9 32 7 41 -13 70
-33 49 -81 69 -92 39z m44 -59 c14 -19 14 -19 -2 -6 -10 7 -18 18 -18 24 0 6
1 8 3 6 1 -2 9 -13 17 -24z"/>
<path d="M1854 4208 c-4 -6 -3 -8 4 -4 6 3 14 1 19 -6 4 -7 19 -22 33 -33 15
-12 12 -5 -9 18 -40 42 -37 41 -47 25z"/>
<path d="M2070 3996 c0 -2 8 -10 18 -17 15 -13 16 -12 3 4 -13 16 -21 21 -21
13z"/>
<path d="M2558 3525 c62 -77 141 -161 141 -150 0 6 -40 53 -90 105 -50 52 -73
73 -51 45z"/>
<path d="M3200 3266 c0 -2 8 -10 18 -17 15 -13 16 -12 3 4 -13 16 -21 21 -21
13z"/>
<path d="M3215 5259 c-9 -17 -15 -34 -13 -39 2 -5 11 9 20 30 20 47 15 53 -7
9z"/>
<path d="M3042 5257 c-12 -13 -22 -30 -22 -39 0 -13 7 -10 30 10 28 25 40 52
22 52 -5 0 -18 -10 -30 -23z"/>
<path d="M3011 5174 c0 -11 3 -14 6 -6 3 7 2 16 -1 19 -3 4 -6 -2 -5 -13z"/>
<path d="M3002 5120 c0 -19 2 -27 5 -17 2 9 2 25 0 35 -3 9 -5 1 -5 -18z"/>
<path d="M5104 4868 l-19 -23 23 19 c21 18 27 26 19 26 -2 0 -12 -10 -23 -22z"/>
<path d="M5072 4805 c-1 -16 3 -48 7 -70 l9 -40 0 45 c0 25 -4 56 -8 70 -8 24
-8 24 -8 -5z"/>
<path d="M3000 4329 c0 -4 7 -20 15 -35 8 -16 15 -22 15 -13 0 14 -29 61 -30
48z"/>
<path d="M1520 3448 c24 -27 45 -48 47 -48 8 0 0 9 -44 50 l-48 45 45 -47z"/>
<path d="M4961 3125 c0 -16 6 -48 14 -70 20 -54 19 -56 -10 -43 -20 9 -28 9
-38 -1 -9 -10 -9 -11 5 -6 73 28 165 -168 112 -243 -8 -12 -11 -22 -6 -22 5 0
19 22 31 49 22 52 27 77 11 51 -7 -11 -9 -1 -8 32 2 36 -3 52 -19 70 -25 27
-60 102 -79 168 -10 39 -12 41 -13 15z"/>
<path d="M3270 1697 c0 -9 242 -298 266 -317 10 -8 -40 55 -111 140 -147 177
-155 187 -155 177z"/>
<path d="M4949 1178 c32 -34 151 -125 151 -115 0 3 -26 24 -57 47 -32 24 -74
57 -93 74 l-35 31 34 -37z"/>
<path d="M5110 1057 c0 -3 12 -12 26 -22 15 -9 23 -12 20 -6 -7 11 -46 35 -46
28z"/>
</g>
</svg>
