<svg xmlns="http://www.w3.org/2000/svg" version="1.1" xmlns:xlink="http://www.w3.org/1999/xlink" xmlns:svgjs="http://svgjs.com/svgjs" width="900" height="600" preserveAspectRatio="none" viewBox="0 0 900 600"><g mask="url(&quot;#SvgjsMask1039&quot;)" fill="none"><rect width="900" height="600" x="0" y="0" fill="#0e2a47"></rect><path d="M412 300L411 468" stroke-width="10" stroke="url(#SvgjsLinearGradient1040)" stroke-linecap="round" class="Up"></path><path d="M195 452L194 801" stroke-width="10" stroke="url(#SvgjsLinearGradient1040)" stroke-linecap="round" class="Up"></path><path d="M333 20L332 381" stroke-width="6" stroke="url(#SvgjsLinearGradient1040)" stroke-linecap="round" class="Up"></path><path d="M650 461L649 239" stroke-width="8" stroke="url(#SvgjsLinearGradient1041)" stroke-linecap="round" class="Down"></path><path d="M428 563L427 731" stroke-width="10" stroke="url(#SvgjsLinearGradient1040)" stroke-linecap="round" class="Up"></path><path d="M21 507L20 667" stroke-width="10" stroke="url(#SvgjsLinearGradient1041)" stroke-linecap="round" class="Down"></path><path d="M569 6L568 355" stroke-width="8" stroke="url(#SvgjsLinearGradient1040)" stroke-linecap="round" class="Up"></path><path d="M400 287L399 23" stroke-width="10" stroke="url(#SvgjsLinearGradient1040)" stroke-linecap="round" class="Up"></path><path d="M185 504L184 795" stroke-width="8" stroke="url(#SvgjsLinearGradient1041)" stroke-linecap="round" class="Down"></path><path d="M545 475L544 770" stroke-width="10" stroke="url(#SvgjsLinearGradient1040)" stroke-linecap="round" class="Up"></path><path d="M111 80L110 285" stroke-width="8" stroke="url(#SvgjsLinearGradient1040)" stroke-linecap="round" class="Up"></path><path d="M770 510L769 684" stroke-width="10" stroke="url(#SvgjsLinearGradient1041)" stroke-linecap="round" class="Down"></path><path d="M706 85L705 -297" stroke-width="6" stroke="url(#SvgjsLinearGradient1040)" stroke-linecap="round" class="Up"></path><path d="M218 323L217 -67" stroke-width="10" stroke="url(#SvgjsLinearGradient1041)" stroke-linecap="round" class="Down"></path><path d="M562 23L561 262" stroke-width="8" stroke="url(#SvgjsLinearGradient1041)" stroke-linecap="round" class="Down"></path><path d="M829 200L828 -38" stroke-width="10" stroke="url(#SvgjsLinearGradient1041)" stroke-linecap="round" class="Down"></path><path d="M91 27L90 -407" stroke-width="10" stroke="url(#SvgjsLinearGradient1040)" stroke-linecap="round" class="Up"></path><path d="M234 313L233 616" stroke-width="6" stroke="url(#SvgjsLinearGradient1040)" stroke-linecap="round" class="Up"></path><path d="M673 373L672 795" stroke-width="8" stroke="url(#SvgjsLinearGradient1040)" stroke-linecap="round" class="Up"></path><path d="M519 94L518 526" stroke-width="8" stroke="url(#SvgjsLinearGradient1040)" stroke-linecap="round" class="Up"></path><path d="M459 332L458 -111" stroke-width="6" stroke="url(#SvgjsLinearGradient1040)" stroke-linecap="round" class="Up"></path><path d="M792 126L791 537" stroke-width="10" stroke="url(#SvgjsLinearGradient1041)" stroke-linecap="round" class="Down"></path><path d="M330 127L329 -217" stroke-width="6" stroke="url(#SvgjsLinearGradient1040)" stroke-linecap="round" class="Up"></path></g><defs><mask id="SvgjsMask1039"><rect width="900" height="600" fill="#ffffff"></rect></mask><linearGradient x1="0%" y1="100%" x2="0%" y2="0%" id="SvgjsLinearGradient1040"><stop stop-color="rgba(28, 83, 142, 0)" offset="0"></stop><stop stop-color="#1c538e" offset="1"></stop></linearGradient><linearGradient x1="0%" y1="0%" x2="0%" y2="100%" id="SvgjsLinearGradient1041"><stop stop-color="rgba(28, 83, 142, 0)" offset="0"></stop><stop stop-color="#1c538e" offset="1"></stop></linearGradient></defs></svg>