<svg xmlns="http://www.w3.org/2000/svg" version="1.1" xmlns:xlink="http://www.w3.org/1999/xlink" xmlns:svgjs="http://svgjs.com/svgjs" width="200" height="600" preserveAspectRatio="none" viewBox="0 0 200 600"><g mask="url(&quot;#SvgjsMask1006&quot;)" fill="none"><circle r="1.725" cx="201.64499999999998" cy="100.975" filter="url(#SvgjsFilter1007)" fill="rgba(51, 121, 194, 0.58)"></circle><circle r="1.69" cx="108.12" cy="423.76" filter="url(#SvgjsFilter1007)" fill="rgba(63, 72, 185, 0.26)"></circle><circle r="1.925" cx="126.475" cy="346.065" filter="url(#SvgjsFilter1007)" fill="rgba(51, 121, 194, 0.58)"></circle><circle r="2.285" cx="189.305" cy="561.605" filter="url(#SvgjsFilter1007)" fill="rgba(51, 121, 194, 0.58)"></circle><circle r="2.83" cx="172.54000000000002" cy="574.49" filter="url(#SvgjsFilter1007)" fill="rgba(51, 121, 194, 0.58)"></circle><circle r="3.075" cx="187.21499999999997" cy="182.17499999999998" filter="url(#SvgjsFilter1007)" fill="rgba(63, 72, 185, 0.26)"></circle><circle r="3.085" cx="177.275" cy="299.945" filter="url(#SvgjsFilter1007)" fill="rgba(63, 72, 185, 0.26)"></circle><circle r="1.945" cx="58.125" cy="352.395" filter="url(#SvgjsFilter1007)" fill="rgba(255, 255, 255, 1)"></circle><circle r="3.15" cx="166.88" cy="140.71" filter="url(#SvgjsFilter1007)" fill="rgba(63, 72, 185, 0.26)"></circle><circle r="3.21" cx="85" cy="408.46999999999997" filter="url(#SvgjsFilter1007)" fill="rgba(51, 121, 194, 0.58)"></circle><circle r="1.835" cx="28.755000000000003" cy="536.765" filter="url(#SvgjsFilter1007)" fill="rgba(63, 72, 185, 0.26)"></circle><circle r="1.865" cx="152.125" cy="330.895" filter="url(#SvgjsFilter1007)" fill="rgba(63, 72, 185, 0.26)"></circle><circle r="1.8" cx="190.32000000000002" cy="88.07" filter="url(#SvgjsFilter1007)" fill="rgba(51, 121, 194, 0.58)"></circle><circle r="2.08" cx="30.33" cy="560.24" filter="url(#SvgjsFilter1007)" fill="rgba(63, 72, 185, 0.26)"></circle><circle r="1.67" cx="102.92" cy="16" filter="url(#SvgjsFilter1007)" fill="rgba(63, 72, 185, 0.26)"></circle><circle r="2.23" cx="4.0600000000000005" cy="585.13" filter="url(#SvgjsFilter1007)" fill="rgba(255, 255, 255, 1)"></circle><circle r="2.775" cx="148.945" cy="251.565" filter="url(#SvgjsFilter1007)" fill="rgba(51, 121, 194, 0.58)"></circle><circle r="1.91" cx="141.52" cy="139.02" filter="url(#SvgjsFilter1007)" fill="rgba(255, 255, 255, 1)"></circle><circle r="3.24" cx="49.32" cy="481.8" filter="url(#SvgjsFilter1007)" fill="rgba(255, 255, 255, 1)"></circle><circle r="3.175" cx="123.645" cy="553.2249999999999" filter="url(#SvgjsFilter1007)" fill="rgba(63, 72, 185, 0.26)"></circle><path d="M182.3 132.4L176.5 144.9 172.9 146.3 166.4 140.8 167 137 178.4 129.1C178.5 129 178.5 129 178.6 128.9 178.8 128.6 178.9 128.3 178.6 127.8 178.2 127.5 177.9 127.4 177.4 127.7L167.5 134.6 168.5 128.7 172.8 125.6C172.8 125.6 173 125.5 173 125.5 173.2 125.2 173.3 124.9 173 124.4 172.8 124.1 172.2 124 171.8 124.3L168.9 126.2 169.7 121.9C169.8 121.5 169.5 121 169 120.9S168.1 121.2 167.9 121.7L167.2 125.9 165.2 123.1C164.9 122.6 164.3 122.6 163.8 122.8 163.6 123.1 163.4 123.6 163.7 124L166.8 128.4 165.7 134.4 158.8 124.5C158.5 124 157.9 124 157.6 124.1 157.2 124.5 157.1 125 157.3 125.4L165.3 136.7 164.6 140.6 156.8 143.5 153.7 140.9 152.4 127.2C152.4 126.7 152 126.4 151.5 126.4S150.7 126.9 150.8 127.3L151.9 139.4 147.2 135.5 146.8 130.3C146.7 129.8 146.3 129.5 145.7 129.4S144.9 129.9 145 130.3L145.4 134 142 131.1C141.6 130.7 141 130.9 140.7 131.3 140.4 131.7 140.4 132.2 140.8 132.5L144.3 135.4 140.7 135.7C140.1 135.6 139.8 136 140 136.6 140 137 140.4 137.4 140.9 137.3L146 136.9 150.8 140.8 138.7 141.8C138.2 141.8 137.8 142.3 137.8 142.8S138.2 143.6 138.7 143.5L152.6 142.3 155.6 144.9 154.1 153.2 150.4 154.5 138 148.6C137.5 148.4 137 148.7 136.7 149 136.5 149.5 136.8 150 137.2 150.3L148.2 155.4 142.5 157.4 137.7 155.1C137.2 154.9 136.8 155.2 136.5 155.6 136.4 155.9 136.6 156.5 137 156.7L140.1 158.2 136 159.8C135.7 159.9 135.5 160.4 135.5 160.9 135.8 161.3 136.3 161.5 136.6 161.4L140.8 159.8 139.3 163.1C139.2 163.5 139.4 164.1 139.7 164.2 140.1 164.5 140.4 164.3 140.8 164 140.8 164 140.9 163.8 140.9 163.8L143.2 159 148.8 157 143.7 167.9C143.5 168.4 143.6 168.9 144.1 169.1 144.6 169.3 144.9 169.1 145.1 168.9 145.2 168.8 145.2 168.8 145.2 168.8L151.1 156.1 154.7 154.8 161.3 160.2 160.5 164 149.2 172.1C148.8 172.2 148.8 172.8 148.9 173.2 149.2 173.6 149.8 173.7 150.2 173.4L160.2 166.5 159.1 172.4 154.8 175.5C154.4 175.8 154.2 176.2 154.5 176.6 154.8 177 155.4 177.1 155.8 176.9L158.6 174.8 157.9 179.1C157.9 179.6 158.2 180 158.7 180.2 158.9 180.2 159.2 180.1 159.5 179.8 159.6 179.7 159.6 179.7 159.5 179.4L160.3 175.1 162.5 178C162.8 178.4 163.2 178.4 163.6 178.2 163.7 178.1 163.7 178.1 163.8 178 164 177.7 164.1 177.4 163.9 177L160.8 172.7 161.8 166.8 168.8 176.7C169.1 177 169.6 177.2 170 176.8 170.2 176.8 170.2 176.8 170.3 176.7 170.5 176.4 170.5 176 170.3 175.6L162.2 164.3 162.9 160.6 170.8 157.6 173.8 160.1 175 173.9C175.1 174.4 175.6 174.8 176 174.8S176.9 174.2 176.9 173.7L175.7 161.7 180.3 165.5 180.9 170.8C180.9 171.3 181.3 171.6 181.8 171.5 182.3 171.5 182.6 171.1 182.5 170.6L182.2 167.1 185.7 170C185.9 170.2 186.5 170.3 186.8 169.9 187.2 169.5 187.1 168.8 186.8 168.6L183.4 165.7 186.9 165.4C187.2 165.4 187.4 165.4 187.5 165.2 187.7 165 187.7 164.7 187.7 164.5 187.6 164 187.2 163.7 186.8 163.8L181.5 164.1 176.9 160.3 189 159.3C189.2 159.3 189.3 159.2 189.5 158.9 189.6 158.8 189.7 158.6 189.7 158.4 189.7 157.9 189.2 157.5 188.7 157.6L175 158.7 172 156.2 173.4 148 177.1 146.5 189.7 152.5C190 152.6 190.5 152.5 190.7 152.3 190.8 152.2 190.8 152.2 190.7 152 191 151.7 190.9 151.1 190.4 150.9L179.4 145.8 185.1 143.7 189.9 146C190.3 146.1 190.6 145.9 190.8 145.6 190.8 145.6 190.9 145.5 190.9 145.5 191.3 145.1 191.1 144.6 190.6 144.4L187.3 142.9 191.4 141.3C191.6 141.3 191.7 141.2 191.9 141.1 192.1 140.8 192.2 140.4 192 140.3 191.9 139.8 191.4 139.6 190.9 139.6L186.8 141.2 188.3 138.1C188.5 137.6 188.3 137 187.8 136.8 187.4 136.7 186.9 136.9 186.8 137.3L184.5 142.1 178.9 144.1 183.9 133.1C184.1 132.6 183.8 132.2 183.5 131.9 183.1 131.8 182.5 132 182.3 132.4ZM166 142.9L171 147.1 171.7 147.7 171.6 148.7 170.5 154.9 170.2 156 169.3 156.3 163.4 158.5 162.4 158.8 161.7 158.2 156.7 154 155.9 153.4 156.1 152.4 157.2 146.2 157.3 145.2 158.3 144.8 164.3 142.6 165.2 142.2 166 142.9Z" fill="rgba(255, 255, 255, 1)"></path><path d="M89 281.8L111 278.9 126.5 291 108.2 298.4 87.9 289.7C87.9 289.7 87.7 289.6 87.7 289.6 87.1 289.6 86.5 290 86.2 290.5 85.8 291.3 86.2 292.1 87 292.2L104.8 299.8 96 303.4 88.1 300.2C88.1 300.2 87.8 300.2 87.8 300.2 87.3 300.1 86.7 300.5 86.3 301 86 301.8 86.4 302.7 87.2 302.8L92.5 305.1 86 307.7C85.4 307.9 85 308.9 85.2 309.5 85.3 310.3 86.4 310.5 87 310.3L93.5 307.7 91.2 313C90.8 313.8 91.2 314.6 92 314.7 92.7 315.1 93.6 314.7 93.7 313.9L97 306 105.8 302.6 98.2 320.4C97.8 321.2 98.2 322.1 99 322.2 99.8 322.5 100.7 322.1 100.8 321.3L109.5 301 127.8 293.6 125 313.4 107.3 326.8C106.7 327.3 106.6 328.1 107 328.7 107.5 329.3 108.3 329.4 108.9 328.9L124.5 317.1 123.2 326.6 116.6 331.6C116 332.1 115.9 332.8 116.3 333.4 116.8 334.1 117.6 334.2 118.2 333.7L122.7 330.3 121.7 337.7C121.3 338.4 122 339.1 122.8 339.2 123.6 339.3 124.2 338.8 124.3 338.1L125.2 331.2 128.7 335.7C129.1 336.3 129.9 336.4 130.5 336S131.2 334.7 130.8 334.1L125.8 327.5 127.1 318 138.9 333.6C139.4 334.2 140.2 334.3 140.8 333.9 141.4 333.4 141.5 332.6 141 332L127.6 314.3 130.3 294.7 145.8 306.8 148.5 328.2C148.7 329 149.5 329.4 150.2 329.5 151.1 329.4 151.4 328.6 151.6 327.8L149.1 308.6 156.6 314.5 157.6 323C157.8 323.8 158.5 324.2 159.3 324.3 160.1 324.2 160.5 323.4 160.6 322.9L159.8 317.1 165.4 321.4C165.9 321.7 166.9 321.9 167.3 321.1 167.7 320.4 167.8 319.6 167 319.2L161.4 314.9 167.2 314.1C168 314 168.4 313.2 168.5 312.7 168.3 312.1 167.8 311.5 167.3 311.4 167.3 311.4 167 311.4 167 311.4L158.5 312.4 151 306.5 170.2 304C171 303.9 171.4 303.1 171.5 302.6 171.3 302 170.8 301.4 170.3 301.3 170.3 301.3 170 301.3 170 301.3L148.1 304.2 132.5 292.1 150.8 284.6 171.1 293.4C171.9 293.8 172.8 293.3 172.9 292.5 173.2 291.8 172.8 290.9 172 290.8L154.2 283.2 163.1 279.6 171 282.9C171.7 283.2 172.6 282.8 172.7 282 173.1 281.3 172.7 280.4 171.9 280.3L166.5 277.9 173.1 275.4C173.7 275.2 174.1 274.1 173.9 273.6 173.7 273 173.2 272.7 172.7 272.6 172.4 272.6 172.1 272.5 171.8 272.8L165.3 275.3 167.6 270C168 269.3 167.6 268.4 166.8 268.3 166.8 268.3 166.5 268.3 166.5 268.3 166 268.2 165.4 268.6 165.1 269.1L161.8 277 153 280.6 160.6 262.8C160.9 262.1 160.5 261.2 159.7 261.1 159.7 261.1 159.5 261.1 159.5 261.1 158.9 261 158.3 261.5 158 262L149.2 282.3 131 289.7 133.7 270.2 151.4 256.7C152 256.3 152.1 255.5 151.7 254.9 151.2 254.3 150.4 254.2 149.8 254.6L134.2 266.2 135.6 256.7 142.2 251.7C142.8 251.2 142.9 250.4 142.4 249.8S141.2 249.1 140.6 249.6L136.1 253 137 246.1C137.1 245.3 136.7 244.7 135.9 244.6 135.1 244.5 134.5 245 134.4 245.8L133.4 252.6 130 248.1C129.8 247.8 129.6 247.5 129 247.4S128.2 247.6 127.9 247.8C127.3 248.3 127.2 249.1 127.6 249.7L132.7 256.3 131.3 265.8 119.5 250.2C119.3 249.9 119 249.6 118.5 249.5 118.3 249.5 117.7 249.6 117.4 249.9 116.8 250.3 116.7 251.1 117.1 251.7L130.6 269.5 127.9 289 112.3 276.9 109.4 255C109.2 254.4 108.8 253.8 108.2 253.7 108.2 253.7 108 253.7 108 253.7 107.1 253.8 106.8 254.6 106.7 255.1L109.2 274.3 101.6 268.4 100.7 259.9C100.5 259.4 100 258.8 99.5 258.7 99.5 258.7 99.2 258.7 99.2 258.7 98.4 258.8 98 259.6 97.9 260.1L98.8 265.9 93.2 261.6C92.9 261.6 92.7 261.3 92.4 261.2 91.9 261.1 91.3 261.3 91 261.8 90.6 262.6 90.5 263.4 91.2 263.8L96.8 268 91.1 268.8C90.2 269 89.9 269.8 89.8 270.3 90 271.1 90.7 271.5 91.2 271.6L99.7 270.6 107.2 276.5 88.1 278.9C87.2 279.1 86.9 279.8 86.8 280.4 87.5 281.3 88.2 281.9 89 281.8Z" fill="rgba(63, 72, 185, 0.26)"></path><path d="M66.3 222.5L68.1 213.3 72.5 216.8C73 217.2 73.8 217.2 74.5 216.7 74.8 216 74.8 215.2 74.1 214.8L68.7 210.3 69.8 203.1 80.9 212.6C81.6 213 82.5 212.9 82.9 212.5 83.4 211.7 83.4 210.9 82.7 210.6L70.4 200 72.4 189.1 81.2 198.4 81.9 185.6 90.5 192.7 87.8 208.7C87.5 208.8 87.6 209.1 87.7 209.3 87.9 209.8 88.3 210.2 88.9 210.3 89.5 210.4 90.1 209.9 90.5 209.2L92.9 194.7 98.3 199.5 97.1 206.5C97 206.8 97.1 207.1 97.2 207.3 97.3 207.6 97.7 208 98.3 208 98.9 208.1 99.5 207.6 99.6 207L100.7 201.5 108 207.4C108.5 208 109.2 207.8 109.9 207.2 110.3 206.8 110.3 206 109.5 205.4L102.5 199.4 107.8 197.5C108.5 197.2 108.8 196.3 108.6 195.8 108.3 195 107.6 194.7 106.9 195L100.1 197.5 94.7 192.6 108.2 187.7C109 187.4 109.3 186.8 109 186 108.8 185.5 108.1 184.9 107.3 185.2L92.3 190.7 83.7 183.5 96 180.5 85.5 173.5 96 169.7 108.3 180C109 180.6 109.8 180.3 110.2 179.9 110.6 179.5 110.6 178.6 110.1 178L98.8 168.7 105.5 166.3 111.1 170.8C111.7 171.4 112.5 171.4 113.1 170.6 113.5 170.2 113.5 169.4 112.7 168.8L108.5 165.2 117.3 162C118.1 161.7 118.4 161 118.1 160.3S117.2 159.2 116.4 159.5L107.6 162.7 108.5 157.2C108.7 156.3 108.2 155.7 107.6 155.6 106.7 155.4 106 155.9 106 156.7L104.6 163.8 97.9 166.2 100.6 151.9C100.6 151 100.1 150.4 99.5 150.3 98.5 150.1 97.9 150.6 97.9 151.5L95.1 167.2 84.6 171 88.1 159 76.8 164.5 78.8 153.6 93.8 148.1C94.6 147.8 94.8 146.9 94.6 146.4 94.4 145.6 93.7 145.3 92.9 145.6L79.1 150.6 80.5 143.3 87.2 140.8C88 140.6 88.3 139.9 88 139.1 87.9 138.6 87.1 138.1 86.3 138.3L81.1 140.2 82.6 131.2C82.8 130.2 82.3 129.6 81.5 129.6 80.9 129.5 80.1 129.8 80.1 130.7L78.4 139.8 74 136.3C73.5 135.9 72.7 135.9 72.3 136.3 71.9 136.8 71.8 137.4 71.9 137.6 72 137.9 72.1 138.1 72.4 138.3L77.8 142.9 76.7 150.1 65.6 140.5C64.9 140.2 64 140.2 63.6 140.6 63.2 141.1 63.1 141.6 63.3 142.1 63.4 142.4 63.4 142.4 63.8 142.6L76.1 153.1 74.1 164.1 65.3 154.7 64.6 167.5 56 160.4 58.7 144.4C58.8 143.8 58.5 143 57.6 142.8 57 142.7 56.3 143.3 56 143.9L53.6 158.4 48.2 153.6 49.4 146.6C49.7 146 49.1 145.3 48.2 145.1 47.6 145 47 145.5 46.6 146.2L45.8 151.6 38.5 145.7C38 145.1 37.3 145.4 36.6 145.9 36.4 146.2 36.4 146.8 36.5 147.1 36.5 147.3 36.6 147.6 37 147.7L44 153.7 38.7 155.6C38 155.9 37.7 156.8 37.9 157.3L37.9 157.3C38.2 158.1 38.9 158.4 39.6 158.1L46.4 155.7 51.8 160.5 38.3 165.4C37.5 165.7 37.2 166.4 37.5 167.1S38.4 168.2 39.2 167.9L54.2 162.5 62.8 169.6 50.5 172.6 61 179.6 50.5 183.4 38.2 173.1C37.5 172.5 36.7 172.8 36.3 173.2 35.9 173.7 35.9 174.5 36.4 175.2L47.5 184.5 41 186.8 35.4 182.4C34.8 181.7 34 181.7 33.4 182.5 33 182.9 33 183.8 33.6 184.4L37.9 187.9 29.2 191.1C28.4 191.4 28.1 192.1 28.4 192.8S29.3 193.9 30.1 193.6L38.9 190.4 38 195.9C37.8 196.2 37.9 196.5 38 196.7 38.2 197.2 38.5 197.4 38.9 197.5 39.8 197.8 40.5 197.2 40.4 196.4L41.9 189.4 48.6 186.9 45.9 201.2C46 201.5 46.1 201.7 46.2 202 46.3 202.5 46.7 202.6 47 202.8 48 203 48.6 202.5 48.6 201.7L51.4 185.9 61.9 182.1 58.4 194.2 69.7 188.6 67.7 199.6 52.6 205C51.9 205.3 51.7 206.2 51.8 206.7 52.1 207.5 52.8 207.8 53.6 207.5L67.1 202.6 66 209.8 59.2 212.3C58.5 212.5 58.2 213.2 58.4 214S59.4 215 60.2 214.8L65.4 212.9 63.9 221.9C63.7 222.3 63.8 222.5 63.9 222.8 64 223 64.4 223.4 65 223.5 65.6 223.6 66.4 223.3 66.3 222.5ZM62.5 189.2L65.5 179.4 56.9 173.7 67 171.2 67.6 161 74.8 168.3 84 163.9 81 173.7 89.6 179.4 79.7 181.9 78.9 192.1 71.9 184.7 62.5 189.2Z" fill="rgba(63, 72, 185, 0.26)"></path><path d="M27.3 373.1L22.9 382.7 19.2 384 20.7 380.7C21 380.4 20.7 380.1 20.4 379.8 20.1 379.7 19.7 379.9 19.6 380.2L17.4 384.6 13.9 385.9 14.6 382.2 18.7 379.4C18.7 379.4 18.8 379.3 18.8 379.3 19 379.1 18.9 378.7 18.8 378.4 18.5 378.2 18.2 378.1 17.9 378.3L14.9 380.4 15.6 376.6 24.3 370.5C24.3 370.5 24.5 370.5 24.5 370.5 24.7 370.3 24.6 369.9 24.5 369.6 24.3 369.3 23.8 369.2 23.6 369.5L15.9 374.8 16.7 370.2 20.1 367.8C20.1 367.8 20.1 367.8 20.2 367.7 20.4 367.5 20.4 367.2 20.3 367 20 366.7 19.6 366.5 19.3 366.8L17 368.4 17.6 365C17.7 364.6 17.4 364.4 17.2 364.3 16.8 364.1 16.4 364.3 16.3 364.8L15.7 368.1 14.3 365.9C14 365.6 13.6 365.4 13.3 365.7 12.9 366 12.9 366.3 13.1 366.6L15.5 370 14.6 374.5 9.2 366.8C9.1 366.6 8.6 366.5 8.3 366.7 8.1 366.9 7.9 367.3 8.2 367.7L14.3 376.4 13.6 380.1 11.5 377.2C11.3 376.8 10.9 376.8 10.6 377 10.3 377.2 10.2 377.6 10.3 377.9L13.2 381.9 12.6 385.8 9.7 383.3 9.2 378.4C9.2 378 8.9 377.7 8.5 377.8 8.2 377.7 7.9 378.1 7.9 378.5L8.2 382.1 5.3 379.6 4.5 368.9C4.5 368.6 4.1 368.3 3.8 368.3 3.4 368.4 3.1 368.7 3.2 369L3.9 378.4 0.4 375.4 0 371.3C0 370.9-0.3 370.7-0.7 370.7-1 370.7-1.3 371-1.3 371.4L-1.1 374.1-3.7 372C-4 371.7-4.4 371.8-4.6 372.1-4.9 372.4-4.8 372.7-4.5 373L-2 375.2-4.6 375.4C-5 375.4-5.3 375.7-5.2 376.1S-4.9 376.7-4.5 376.7L-0.6 376.4 3 379.4-6.2 380.1C-6.6 380.2-6.9 380.5-6.8 380.9-6.8 381.2-6.5 381.5-6.1 381.5L4.4 380.6 7.4 383.1 3.8 383.4C3.4 383.4 3.2 383.7 3.2 384.1 3.2 384.5 3.5 384.7 3.9 384.7L8.8 384.3 11.6 386.7 8.2 387.9 3.6 385.9C3.3 385.8 2.9 385.9 2.8 386.2 2.6 386.6 2.8 386.9 3.1 387.1L6.3 388.7 2.8 389.9-6.8 385.4C-7.2 385.2-7.5 385.4-7.7 385.7-7.9 386.1-7.7 386.4-7.5 386.6L1 390.6-3.4 392.1-7.1 390.4C-7.4 390.2-7.7 390.4-8 390.7-8.1 391-7.9 391.4-7.5 391.6L-5.2 392.7-8.3 393.9C-8.7 394-8.8 394.4-8.7 394.8-8.6 395.1-8.2 395.3-7.9 395.1L-4.7 394-5.9 396.5C-6.1 396.9-5.8 397.2-5.5 397.3-5.2 397.6-5 397.4-4.8 397.2-4.7 397.1-4.7 397.1-4.6 397L-2.9 393.4 1.5 391.9-2.5 400.3C-2.7 400.6-2.5 400.9-2.2 401.2-1.9 401.3-1.6 401.1-1.5 400.9-1.4 400.8-1.4 400.8-1.4 400.8L3.3 391.2 6.8 389.9 5.3 393.2C5.1 393.6 5.2 393.9 5.5 394.1 5.8 394.2 6.2 394.1 6.4 393.9 6.5 393.8 6.5 393.8 6.6 393.7L8.6 389.2 12.1 388 11.5 391.6 7.5 394.5C7.1 394.7 7.1 395.2 7.2 395.5 7.5 395.7 7.9 395.9 8.1 395.6L11.1 393.6 10.5 397.3 1.7 403.4C1.4 403.5 1.4 404 1.5 404.3 1.8 404.5 2.2 404.7 2.5 404.5L10.1 399.2 9.3 403.7 6 406C5.6 406.2 5.6 406.7 5.9 407 6 407.2 6.4 407.4 6.7 407.2L9 405.6 8.4 408.9C8.3 409.2 8.5 409.6 8.9 409.7 9.1 409.7 9.4 409.6 9.6 409.4 9.6 409.4 9.6 409.3 9.7 409.2L10.3 405.8 11.9 408.1C12 408.3 12.5 408.4 12.8 408.3 12.9 408.2 12.9 408.2 12.9 408.2 13.1 407.9 13.1 407.5 12.9 407.3L10.6 404 11.4 399.4 16.8 407.1C17.1 407.3 17.3 407.4 17.7 407.2 17.7 407.2 17.8 407.1 17.8 407.1 18 406.9 18 406.6 17.8 406.2L11.8 397.5 12.4 393.8 14.5 396.8C14.8 397 15.2 397.2 15.4 396.9 15.5 397 15.6 396.9 15.6 396.9 15.8 396.7 15.8 396.3 15.6 396L12.7 392 13.5 388.2 16.3 390.7 16.7 395.5C16.8 395.9 17.2 396.3 17.5 396.2 17.8 396.1 18.1 395.8 18.2 395.5L17.8 391.9 20.7 394.4 21.6 404.9C21.6 405.3 21.9 405.5 22.3 405.5 22.7 405.5 22.9 405.1 22.9 404.8L22.1 395.6 25.7 398.6 26 402.5C26.1 402.9 26.4 403.2 26.7 403.1S27.4 402.8 27.3 402.4L27.1 399.8 29.7 401.9C30 402.2 30.3 402.2 30.6 401.9 30.9 401.6 30.8 401.2 30.5 400.9L28 398.8 30.7 398.4C30.9 398.4 31.1 398.4 31.2 398.3 31.2 398.2 31.3 397.9 31.3 397.7 31.3 397.4 31 397.1 30.6 397.1L26.6 397.6 23 394.5 32.3 393.7C32.5 393.7 32.7 393.6 32.7 393.5 32.8 393.4 32.9 393.2 32.9 393 32.9 392.6 32.5 392.3 32.2 392.4L21.6 393.3 18.6 390.8 22.3 390.6C22.5 390.6 22.6 390.4 22.7 390.3 22.8 390.2 22.9 390.1 22.9 389.9 22.9 389.5 22.4 389.2 22.2 389.3L17.2 389.6 14.3 387.2 17.9 385.9 22.4 388.1C22.6 388.1 23 388.1 23.2 387.9 23.3 387.8 23.3 387.8 23.2 387.7 23.4 387.4 23.3 387 22.9 386.8L19.7 385.3 23.2 383.9 32.9 388.6C33.2 388.7 33.5 388.6 33.6 388.4 33.7 388.3 33.7 388.3 33.7 388.3 33.9 387.9 33.8 387.5 33.5 387.3L25 383.3 29.4 381.8 33 383.5C33.4 383.6 33.7 383.5 33.9 383.3 33.9 383.3 34 383.2 34 383.2 34.1 382.8 33.9 382.5 33.7 382.3L31.1 381.2 34.4 380.1C34.5 380 34.5 379.9 34.6 379.8 34.7 379.7 34.8 379.4 34.8 379.2 34.5 378.8 34.2 378.6 33.9 378.8L30.7 379.9 31.9 377.4C32 377 31.8 376.7 31.6 376.5 31.2 376.4 30.9 376.6 30.6 376.9L28.9 380.5 24.6 382.1 28.5 373.7C28.7 373.4 28.6 372.9 28.3 372.8 27.9 372.7 27.5 372.7 27.3 373.1Z" fill="rgba(63, 72, 185, 0.26)"></path><path d="M138.4 37.6L149.7 45.5 151.8 57.7 140.3 53.4 134.5 40.8C134.5 40.8 134.4 40.7 134.4 40.7 134.2 40.4 133.8 40.4 133.4 40.5 132.9 40.7 132.7 41.2 133 41.6L138.1 52.6 132.5 50.6 130.2 45.7C130.2 45.7 130.1 45.6 130.1 45.6 129.9 45.4 129.4 45.3 129 45.4 128.5 45.6 128.4 46.2 128.7 46.6L130.2 49.9 126 48.3C125.7 48.2 125.1 48.5 124.9 48.8 124.7 49.3 125.1 49.8 125.4 49.9L129.5 51.5 126.2 53C125.7 53.2 125.6 53.7 125.9 54.1 126.1 54.6 126.6 54.8 127 54.5L131.9 52.2 137.3 54.3 126.3 59.4C125.9 59.6 125.7 60.1 126 60.5 126.2 61 126.8 61.2 127.2 60.9L139.7 55.1 151.3 59.4 141.7 67.4 127.9 66.1C127.4 66.1 127 66.4 127 66.9 126.9 67.3 127.2 67.7 127.7 67.8L139.9 68.9 135.3 72.7 130.1 72.3C129.7 72.2 129.3 72.5 129.2 73 129.2 73.5 129.5 73.9 130 73.9L133.5 74.2 129.9 77.2C129.4 77.4 129.5 78 129.8 78.4 130.1 78.8 130.6 78.8 131 78.5L134.3 75.7 134 79.2C134 79.7 134.3 80.1 134.8 80.1S135.6 79.8 135.6 79.4L136.1 74.2 140.7 70.4 139.6 82.6C139.6 83 139.9 83.4 140.4 83.5 140.8 83.5 141.2 83.2 141.3 82.7L142.5 68.9 152 61 154.1 73.1 146.3 84.1C146.1 84.6 146.3 85.1 146.6 85.5 147 85.7 147.5 85.5 147.9 85.2L154.8 75.3 155.8 81.2 152.7 85.5C152.4 86 152.6 86.5 153 86.9 153.4 87.1 153.9 87 154.1 86.7L156.2 83.7 157 88.1C157.1 88.4 157.5 88.9 158 88.7 158.5 88.6 158.9 88.2 158.7 87.7L157.9 83.4 160.9 85.5C161.3 85.7 161.8 85.5 162.1 85.3 162.2 85 162.3 84.5 162.1 84.3 162.1 84.3 162 84.1 162 84.1L157.6 81 156.6 75.1 166.5 82.1C167 82.3 167.5 82.2 167.7 81.9 167.9 81.6 167.9 81.1 167.7 80.9 167.7 80.9 167.6 80.7 167.6 80.7L156.2 72.9 154.2 60.7 165.7 65 171.4 77.5C171.6 78 172.2 78.2 172.6 77.9 173.1 77.7 173.2 77.1 172.9 76.7L167.9 65.7 173.5 67.8 175.8 72.6C176 73.1 176.6 73.3 176.9 73 177.4 72.8 177.6 72.2 177.3 71.8L175.8 68.5 179.9 70C180.3 70.2 180.9 69.9 181 69.5 181.2 69.2 181.1 68.8 180.9 68.6 180.8 68.5 180.7 68.3 180.4 68.3L176.3 66.7 179.7 65.3C180.1 65.1 180.3 64.5 180 64.1 180 64.1 179.9 64 179.9 64 179.7 63.7 179.2 63.7 178.8 63.8L174 66.1 168.4 64 179.4 59C179.9 58.8 180.1 58.2 179.7 57.8 179.7 57.8 179.6 57.7 179.6 57.7 179.4 57.4 178.9 57.4 178.6 57.5L166 63.2 154.4 59 163.9 51.1 177.8 52.3C178.2 52.4 178.6 52 178.6 51.6 178.7 51.1 178.4 50.7 177.9 50.7L165.8 49.5 170.4 45.6 175.6 46.1C176.1 46.1 176.5 45.8 176.5 45.3S176.2 44.5 175.7 44.5L172.2 44.1 175.6 41.4C175.9 41 176 40.6 175.7 40.2 175.3 39.8 174.9 39.8 174.5 40.1L171.2 42.8 171.5 39.3C171.5 39.1 171.5 38.9 171.3 38.6S170.9 38.3 170.6 38.3C170.2 38.3 169.8 38.6 169.7 39.1L169.3 44.2 164.7 48.1 165.8 35.8C165.8 35.6 165.8 35.4 165.6 35.1 165.5 35 165.1 34.8 164.9 34.8 164.4 34.8 164.1 35.1 164 35.6L162.8 49.4 153.3 57.3 151.2 45.2 159.1 33.8C159.2 33.5 159.3 33 159.1 32.8 159.1 32.8 159 32.6 159 32.6 158.5 32.3 158 32.5 157.8 32.8L150.8 42.7 149.8 36.8 152.9 32.4C153.1 32.1 153.1 31.6 152.9 31.4 152.9 31.4 152.8 31.2 152.8 31.2 152.4 31 151.9 31.2 151.6 31.4L149.6 34.4 148.8 30C148.7 29.9 148.7 29.7 148.6 29.6 148.4 29.3 148 29.1 147.7 29.2 147.2 29.4 146.8 29.7 147 30.2L147.8 34.6 144.8 32.5C144.3 32.2 143.8 32.4 143.6 32.6 143.3 33.1 143.5 33.6 143.7 33.8L148 37 149 42.8 139.1 35.9C138.7 35.6 138.2 35.8 137.9 36 137.9 36.7 137.9 37.3 138.4 37.6Z" fill="rgba(255, 255, 255, 1)"></path><path d="M13.6 555.1L24.5 542.6 39.2 541.6 32.7 554.9 17 560.1C17 560.1 16.8 560.2 16.8 560.2 16.5 560.4 16.4 561 16.4 561.4 16.6 562 17.2 562.3 17.7 562L31.5 557.4 28.3 563.8 22.3 565.9C22.3 565.9 22.1 566 22.1 566 21.8 566.3 21.7 566.8 21.7 567.3 21.9 567.9 22.6 568.1 23.1 567.8L27.2 566.5 24.9 571.2C24.6 571.6 24.9 572.4 25.3 572.6 25.8 573 26.5 572.5 26.7 572.1L29.1 567.4 30.4 571.6C30.6 572.2 31.2 572.5 31.7 572.1 32.4 571.9 32.6 571.3 32.3 570.8L30.2 564.7 33.4 558.5 38.1 572.2C38.2 572.8 38.9 573.1 39.4 572.8 40 572.6 40.3 571.9 39.9 571.4L34.7 555.7 41.2 542.4 49.6 554.9 46.3 571.3C46.2 571.8 46.6 572.3 47.1 572.4 47.7 572.5 48.2 572.2 48.3 571.6L51.1 557.2 55.1 563.2 53.9 569.3C53.8 569.9 54.1 570.4 54.7 570.5 55.3 570.6 55.8 570.2 55.9 569.7L56.7 565.5 59.8 570.2C60 570.8 60.7 570.8 61.2 570.5 61.7 570.1 61.8 569.6 61.5 569.1L58.6 564.7 62.7 565.6C63.3 565.7 63.8 565.3 63.9 564.8S63.7 563.7 63.1 563.6L57 562.4 53 556.4 67.4 559.3C68 559.4 68.5 559.1 68.6 558.5 68.7 558 68.4 557.5 67.8 557.4L51.5 554.1 43.2 541.8 58 540.8 70.1 551.5C70.6 551.9 71.3 551.7 71.8 551.4 72.1 550.9 72 550.2 71.6 549.7L60.7 540.2 67.9 539.8 72.6 544C73.1 544.4 73.7 544.3 74.2 543.9 74.6 543.4 74.5 542.8 74.2 542.5L70.9 539.7 76.2 539.3C76.6 539.2 77.3 538.8 77.1 538.1 76.9 537.5 76.6 537 76 537.2L70.7 537.6 73.6 534.3C73.9 533.8 73.8 533.2 73.6 532.8 73.2 532.6 72.6 532.5 72.3 532.7 72.3 532.7 72.1 532.8 72.1 532.8L67.8 537.6 60.7 538.1 70.2 527.1C70.6 526.6 70.4 526 70.2 525.7 69.8 525.5 69.3 525.3 68.9 525.6 68.9 525.6 68.8 525.7 68.8 525.7L57.9 538.2 43.2 539.2 49.7 525.9 65.4 520.7C66 520.5 66.3 519.9 66 519.4 65.8 518.8 65.2 518.5 64.7 518.8L50.9 523.4 54.1 517 60.1 514.9C60.7 514.7 61 514 60.6 513.5 60.5 512.9 59.8 512.7 59.3 513L55.2 514.3 57.5 509.6C57.8 509.2 57.5 508.4 57.1 508.2 56.7 508 56.3 508.1 55.9 508.3 55.8 508.4 55.6 508.5 55.5 508.8L53.2 513.5 51.8 509.3C51.7 508.7 51 508.5 50.5 508.8 50.5 508.8 50.3 508.9 50.3 508.9 50 509.1 49.9 509.7 49.9 510.1L52.1 516.2 48.9 522.6 44.3 508.9C44.1 508.2 43.4 508 42.9 508.3 42.9 508.3 42.8 508.4 42.8 508.4 42.4 508.6 42.3 509.2 42.4 509.6L47.6 525.4 41.1 538.7 32.9 526.4 36.1 510C36.2 509.4 35.9 508.9 35.3 508.8 34.8 508.7 34.3 509 34.2 509.6L31.2 523.9 27.2 517.9 28.4 511.8C28.5 511.2 28.2 510.7 27.6 510.6S26.6 510.8 26.5 511.4L25.7 515.5 22.8 511.2C22.4 510.7 21.9 510.6 21.4 511 20.9 511.3 20.8 511.8 21.1 512.3L24 516.7 19.8 515.8C19.5 515.8 19.3 515.7 18.9 515.9S18.6 516.4 18.5 516.7C18.4 517.3 18.7 517.8 19.3 517.9L25.4 519.1 29.4 525.1 15 522.2C14.7 522.2 14.4 522.1 14.1 522.3 13.9 522.4 13.7 522.8 13.6 523.1 13.5 523.7 13.9 524.2 14.4 524.3L30.8 527.5 39 539.8 24.3 540.8 11.7 529.9C11.3 529.7 10.8 529.6 10.4 529.8 10.4 529.8 10.3 529.9 10.3 529.9 9.9 530.4 10 531.1 10.3 531.4L21.2 540.9 14 541.4 9.3 537.1C8.9 536.9 8.3 536.8 8 537 8 537 7.8 537.1 7.8 537.1 7.4 537.6 7.6 538.2 7.8 538.5L11.2 541.4 5.9 541.8C5.7 541.9 5.4 541.8 5.3 541.9 5 542.2 4.7 542.5 4.8 543 5 543.6 5.3 544.1 5.9 543.9L11.2 543.5 8.3 546.9C8 547.4 8.1 548 8.3 548.3 8.8 548.7 9.5 548.5 9.8 548.3L14.1 543.5 21.2 543.1 11.7 554C11.3 554.5 11.5 555.1 11.7 555.5 12.5 555.6 13.2 555.6 13.6 555.1Z" fill="rgba(63, 72, 185, 0.26)"></path><path d="M123.1 463.1L141.4 456.9 146.2 459.1 147.1 471 142.7 474.1 123.7 470.4C123.4 470.4 123.4 470.4 123.2 470.4 122.7 470.4 122.3 470.7 122.1 471.4 122.2 472.1 122.4 472.6 123.1 472.7L139.8 476 132.8 480.7 125.5 479.3C125.5 479.3 125.3 479.4 125.3 479.4 124.8 479.4 124.4 479.7 124.2 480.4 124 480.9 124.5 481.5 125.2 481.7L130 482.8 124.8 486.2C124.4 486.4 124.2 487.2 124.5 487.8S125.7 488.5 126.4 488.2L131.3 484.8 130.5 489.5C130.3 490.2 130.8 490.9 131.5 491.1 132 491 132.7 490.7 132.8 490L134.2 482.7 141.3 477.9 138.1 494.6C137.9 495.3 138.4 495.9 138.9 496.1 139.6 496.1 140.3 495.8 140.5 495.1L144 476.1 148.7 473 159.1 478 159.5 483.6 147 498.3C146.6 498.8 146.6 499.5 147.1 500S148.3 500.3 148.8 499.9L159.7 486.9 160.4 495.5 155.6 501C155.2 501.5 155.3 502.2 155.8 502.8S157 503.2 157.4 502.7L160.6 498.7 161.1 505C161.1 505.7 161.9 506.1 162.6 506.1 163.3 506 163.7 505.5 163.6 504.8L163.2 498.6 166.9 501.8C167.5 502.4 168.1 502.4 168.6 501.7 169 501.2 168.9 500.5 168.4 500L162.9 495.3 162.3 486.7 175.1 497.9C175.6 498.3 176.5 498.3 176.9 497.8S177.3 496.6 176.8 496.1L162.1 483.4 161.7 477.8 171.5 471.3 176.3 473.7 182.6 492C182.9 492.6 183.6 492.8 184.3 492.8 185 492.5 185.1 491.8 185.1 491.1L179.5 475.1 187 478.8 189.4 485.8C189.7 486.5 190.4 486.7 191.1 486.7 191.5 486.4 191.9 485.7 191.7 485L190.2 480.4 195.7 483C196.2 483.2 196.9 483 197.3 482.5 197.5 481.7 197.2 481.1 196.7 480.9L191.2 478.2 195.9 476.5C196.4 476.2 196.8 475.5 196.5 475 196.5 474.3 196 474.1 195.3 474.2 195.3 474.2 195.1 474.2 195.1 474.2L188 476.6 180.5 472.9 196.4 467.3C197.1 467 197.5 466.5 197.3 465.8 197 465.2 196.5 465 196 465 195.8 465 195.8 465 195.8 465L177.3 471.5 172.5 469.1 171.6 457.2 176.1 454.3 195.3 457.8C195.7 458 196.4 457.5 196.6 457 196.8 456.3 196.3 455.6 195.6 455.4L178.9 452.2 185.8 447.5 193.2 448.8C193.9 449 194.6 448.7 194.5 448 194.7 447.3 194.2 446.7 193.7 446.5L188.8 445.7 193.9 442.2C194.3 441.7 194.5 441 194.2 440.3 194 440.1 193.5 439.9 193 440 192.8 440 192.8 440 192.6 440.2L187.4 443.6 188.2 438.7C188.4 438 187.9 437.5 187.4 437.3 187.2 437.3 187.2 437.3 187 437.4 186.5 437.4 186.1 437.7 185.9 438.1L184.5 445.5 177.6 450.2 180.8 433.6C180.8 432.9 180.5 432.2 179.8 432.3 179.6 432.1 179.6 432.1 179.3 432.1 178.9 432.1 178.4 432.6 178.2 433.1L174.7 452.3 170.3 455.2 159.6 450.1 159.2 444.8 171.9 430.1C172.4 429.6 172.3 428.6 171.8 428.2S170.4 427.8 169.9 428.3L159 441.3 158.3 432.9 163.1 427.2C163.5 426.7 163.4 426 162.9 425.6 162.4 425.1 161.7 425.2 161.3 425.7L158.1 429.4 157.6 423.2C157.6 422.7 157.1 422 156.4 422.1 155.7 422.1 155 422.9 155 423.3L155.5 429.6 151.8 426.4C151.5 426.2 151.3 426 151 426 150.6 426 150.4 426.3 150.1 426.5 149.7 427 149.8 427.7 150.3 428.1L155.8 433.1 156.4 441.5 143.6 430.3C143.4 430.1 143.1 430.1 142.7 430.1 142.4 430.1 142.2 430.1 142 430.4 141.6 430.9 141.6 431.8 142.1 432.3L156.6 445 157 450.3 147.5 456.9 142.4 454.7 136.1 436.2C135.8 435.8 135.3 435.3 134.9 435.4 134.6 435.4 134.6 435.4 134.7 435.6 134 435.7 133.6 436.4 133.8 437.1L139.5 453 131.7 449.4 129.3 442.3C129 441.9 128.6 441.7 128.1 441.7 128.1 441.7 127.9 441.7 127.9 441.7 127.2 441.8 126.8 442.5 127 443.2L128.8 448 123.2 445.4C123 445.1 122.7 445.2 122.5 445.2 122 445.2 121.6 445.5 121.6 445.7 121.2 446.4 121.5 447.1 122 447.6L127.6 450.2 123 451.7C122.3 452 121.9 452.7 122.2 453.4 122.4 453.8 123.2 454.2 123.6 454L130.7 451.6 138.2 455.2 122.3 460.9C121.6 461.2 121.4 461.9 121.4 462.6 121.7 463 122.4 463.4 123.1 463.1ZM149.6 469.4L148.9 460.3 148.8 458.9 149.9 458.1 157.3 453.1 158.6 452.3 159.8 452.9 167.8 456.8 169 457.4 169.1 458.8 169.8 467.9 169.9 469.3 168.8 470.1 161.4 475 160.3 475.8 158.9 475.2 150.9 471.4 149.7 470.8 149.6 469.4Z" fill="rgba(63, 72, 185, 0.26)"></path><path d="M161.7 554.9L157.9 553.3 160 551.5C160.3 551.4 160.4 551 160.2 550.6 159.9 550.3 159.5 550.3 159.2 550.4L156.3 552.7 152.7 551.2 158.7 546.6C159.1 546.3 159.2 545.9 158.9 545.6 158.7 545.3 158.3 545.2 157.9 545.5L151.3 550.6 148 549.2 147 541.2 149.4 539.2 157.5 542.7C157.7 542.7 157.8 542.7 157.9 542.7 158 542.7 158.3 542.5 158.4 542.3 158.6 541.9 158.4 541.5 158 541.4L150.6 538.3 153.7 536 157.5 537.5C157.5 537.6 157.6 537.6 157.8 537.6 158 537.5 158.3 537.4 158.4 537.1 158.5 536.8 158.3 536.4 158 536.2L154.9 535 158.6 532.1C158.9 531.9 159 531.5 158.8 531.1 158.5 530.9 158.1 530.8 157.8 531L154.3 533.7 153.9 531C153.9 530.6 153.4 530.4 153.2 530.4 152.8 530.4 152.4 530.8 152.5 531.2L152.9 534.7 149.9 537 148.9 529.6C148.8 529.2 148.5 529 148.1 529.1 147.8 529.1 147.5 529.4 147.6 529.8L148.7 538 146.1 540.1 138.6 536.9 138.2 533.9 144.9 528.7C145.2 528.5 145.3 528 145 527.7 144.8 527.3 144.4 527.4 144 527.6L138 532.3 137.4 528.5 140.5 526.2C140.7 526 140.8 525.5 140.6 525.2S139.9 524.9 139.5 525.1L137.2 526.9 136.6 522.3C136.6 521.9 136.1 521.7 135.7 521.7 135.5 521.7 135.1 522.1 135.2 522.5L135.8 527.1 132.9 526C132.7 525.9 132.3 525.9 132 526.4 132 526.7 132.2 527.2 132.4 527.3L136 528.7 136.5 532.5 129.4 529.6C129 529.5 128.6 529.5 128.4 530 128.3 530.2 128.5 530.8 128.7 530.9L136.7 534.1 137.1 537.1 130.7 542.2 127.7 540.8 126.6 532.6C126.5 532.2 126.2 532 125.8 532.1 125.4 532.1 125.1 532.4 125.1 532.8L126.1 540.2 122.6 538.8 122.1 535.2C122 534.8 121.7 534.6 121.3 534.7 120.9 534.7 120.7 535 120.8 535.4L121.1 538.2 117 536.5C116.7 536.4 116.2 536.6 116.1 536.9 116 537.3 116.1 537.7 116.5 537.7L120.8 539.6 118.2 541.5C118 541.8 117.9 542.3 118.1 542.5 118.2 542.8 118.5 542.9 118.8 542.8 118.8 542.8 118.9 542.8 119 542.6L122.3 540.2 125.9 541.6 119.6 546.6C119.2 546.8 119.1 547.2 119.4 547.6 119.6 547.7 119.7 547.8 120 547.8 120.1 547.7 120.3 547.7 120.4 547.7L127.3 542.2 130.2 543.4 131.3 551.5 128.4 553.6 120.8 550.5C120.3 550.3 119.9 550.5 119.9 550.9 119.6 551.2 119.8 551.6 120.3 551.8L127.2 554.6 124.2 557 120.8 555.6C120.5 555.5 120.1 555.7 119.9 556 119.8 556.4 119.9 556.8 120.3 556.9L122.8 558 119.6 560.6C119.2 560.8 119.2 561.2 119.4 561.6 119.6 561.7 119.9 561.8 120.1 561.7 120.1 561.7 120.2 561.7 120.4 561.7L123.9 558.9 124.4 562.2C124.4 562.5 124.7 562.9 125.1 562.8 125.5 562.8 125.7 562.3 125.7 562.1L125.1 558 128.2 555.5 129.2 563.6C129.3 564 129.7 564.2 130.1 564.2S130.8 563.8 130.7 563.4L129.5 554.6 132.1 552.6 139.6 555.8 140.1 559.2 133.3 564.4C133 564.7 132.9 565.1 133.1 565.5 133.3 565.6 133.6 565.7 133.8 565.7 134 565.7 134.1 565.6 134.2 565.5L140.3 560.8 140.8 564.6 137.8 567C137.5 567.2 137.5 567.6 137.6 568 137.9 568.2 138.4 568.3 138.6 568.1L141 566.2 141.6 570.4C141.6 570.7 142.1 571 142.3 571 142.7 570.9 143.1 570.5 143.1 570.2L142.5 566 145.2 567.2C145.3 567.2 145.5 567.2 145.6 567.2 145.9 567.2 146.1 567 146.2 566.8 146.3 566.4 146.1 566.1 145.8 565.8L142.3 564.4 141.8 560.6 148.9 563.5C149.3 563.7 149.7 563.6 149.8 563.3 150 562.8 149.8 562.5 149.5 562.2L141.5 559 141.1 555.6 147.5 550.5 150.5 551.7 151.7 560.6C151.8 561 152.1 561.2 152.5 561.2 152.9 561.1 153.1 560.8 153 560.4L151.9 552.4 155.5 553.9 156.1 558C156.1 558.3 156.6 558.6 157 558.5 157.3 558.5 157.6 558.1 157.5 557.8L157.1 554.5 161.2 556.2C161.3 556.2 161.3 556.2 161.5 556.2 161.7 556.1 162 556 162.1 555.8 162.2 555.4 162 555 161.7 554.9ZM140.9 554L140.1 554.5 139.4 554.2 133.3 551.6 132.6 551.3 132.5 550.5 131.6 544.1 131.5 543.3 132.1 542.8 137.3 538.7 137.9 538.2 138.8 538.5 144.8 541.1 145.6 541.4 145.7 542.2 146.6 548.6 146.7 549.4 146 549.9 140.9 554Z" fill="rgba(255, 255, 255, 1)"></path><path d="M57 69.4L57 65.2 59.5 66.5C59.7 66.7 60.2 66.6 60.4 66.3 60.5 65.9 60.4 65.5 60.2 65.3L57 63.5 57 59.6 63.5 63.4C63.9 63.6 64.4 63.5 64.5 63.1 64.7 62.8 64.6 62.4 64.2 62.2L57 58.1 56.9 54.6 63.9 50.4 66.7 51.9 66.6 60.7C66.7 60.9 66.8 61 66.8 61.1 66.9 61.2 67.1 61.4 67.3 61.4 67.8 61.4 68.1 61.1 68 60.7L68 52.6 71.3 54.6 71.4 58.7C71.3 58.7 71.4 58.9 71.5 59 71.6 59.2 71.8 59.4 72.1 59.3 72.4 59.3 72.7 59 72.8 58.6L72.7 55.3 76.9 57.6C77.1 57.8 77.5 57.7 77.8 57.4 77.9 57 77.8 56.6 77.6 56.5L73.6 54.3 76 52.9C76.4 52.7 76.4 52.2 76.3 51.9 76.1 51.6 75.6 51.4 75.3 51.6L72.2 53.4 68.9 51.5 75.3 47.7C75.7 47.5 75.8 47.1 75.6 46.8 75.4 46.4 75 46.4 74.6 46.6L67.5 50.8 64.6 49.2 64.6 41 67.2 39.5 74.6 43.6C74.9 43.9 75.5 43.7 75.6 43.4 75.8 43.1 75.6 42.7 75.3 42.4L68.6 38.7 71.9 36.7 75.2 38.6C75.5 38.8 76 38.6 76.2 38.4S76.2 37.6 75.9 37.3L73.3 35.9 77.3 33.5C77.7 33.3 77.7 32.8 77.5 32.5 77.4 32.3 76.9 32.1 76.6 32.3L72.6 34.6 72.5 31.6C72.4 31.3 72.2 30.9 71.8 30.9 71.5 30.9 71.1 31.3 71.1 31.6L71.2 35.4 67.9 37.4 67.8 29.7C67.7 29.3 67.5 28.9 67 28.9 66.7 28.9 66.3 29.3 66.3 29.6L66.5 38.2 63.8 39.8 56.7 35.8 56.7 32.5 63.9 28.3C64.2 28.1 64.3 27.7 64.1 27.4 63.9 27 63.5 26.8 63.1 27L56.7 30.8 56.6 27 59.7 25.2C60 25 60.1 24.6 59.9 24.3 59.7 23.9 59.4 23.8 59 24L56.6 25.5 56.6 21C56.6 20.7 56.2 20.3 55.9 20.3 55.5 20.4 55.1 20.6 55.2 21L55.2 25.7 52.4 24.1C52 24 51.6 24.1 51.5 24.3 51.3 24.6 51.3 24.9 51.4 25.1 51.4 25.1 51.5 25.2 51.7 25.3L55.3 27.4 55.3 31.2 48.3 27.3C47.9 27 47.5 27.1 47.3 27.6 47.3 27.7 47.2 27.9 47.4 28.1 47.4 28.3 47.5 28.4 47.6 28.5L55.3 32.7 55.3 35.8 48.3 40 45.3 38.2 45.1 29.9C45.2 29.4 44.9 29.2 44.4 29.2 44.1 29.2 43.8 29.5 43.8 30L43.9 37.5 40.5 35.6 40.4 31.9C40.4 31.6 40.1 31.3 39.7 31.3 39.3 31.3 39 31.5 39.1 32L39 34.8 35.4 32.8C35 32.5 34.7 32.7 34.4 33 34.4 33.2 34.4 33.5 34.5 33.7 34.5 33.7 34.6 33.8 34.7 33.9L38.6 36.1 35.7 37.8C35.5 37.9 35.3 38.4 35.5 38.7 35.7 39.1 36.2 39.1 36.4 39L40 36.9 43.4 38.7 36.4 42.8C36 43.1 36 43.5 36.2 43.9S36.8 44.3 37.1 44.1L44.8 39.6 47.6 41.2 47.6 49.3 44.7 51.1 37.2 46.9C36.8 46.8 36.4 46.8 36.1 47.2 36.1 47.3 36.1 47.6 36.2 47.9 36.3 48 36.4 48.1 36.6 48.2L43.3 51.9 40 53.9 36.5 52C36.3 51.9 35.9 52 35.6 52.3 35.5 52.7 35.6 53.1 35.8 53.2L38.6 54.7 34.9 56.9C34.7 57 34.5 57.6 34.7 57.8 34.9 58.1 35.4 58.3 35.7 58.1L39.3 56 39.2 59C39.3 59.1 39.4 59.2 39.4 59.3 39.6 59.5 39.8 59.7 40 59.7 40.4 59.7 40.7 59.3 40.8 59L40.7 55.2 44 53.2 44.1 60.9C44.1 61.4 44.4 61.7 44.7 61.6 45.2 61.7 45.4 61.3 45.5 61L45.4 52.4 48.4 50.6 55.5 54.6 55.6 57.8 47.9 62.4C47.6 62.6 47.5 62.9 47.7 63.3 47.9 63.6 48.2 63.7 48.6 63.5L55.6 59.4 55.6 63.3 52 65.4C51.8 65.5 51.6 66 51.8 66.4 52 66.7 52.5 66.8 52.7 66.6L55.6 64.9 55.6 69.4C55.7 69.5 55.7 69.5 55.8 69.6 55.9 69.9 56.2 70 56.3 70.1 56.7 70 57 69.7 57 69.4ZM49.8 49.8L49 49.3 49 48.5 49 41.9 49 41.1 49.7 40.7 55.3 37.4 56 37 56.7 37.4 62.5 40.6 63.1 41 63.2 41.9 63.2 48.4 63.2 49.3 62.6 49.7 56.9 53 56.2 53.4 55.5 52.9 49.8 49.8Z" fill="rgba(63, 72, 185, 0.26)"></path></g><defs><mask id="SvgjsMask1006"><rect width="200" height="600" fill="#ffffff"></rect></mask><filter id="SvgjsFilter1007"><feGaussianBlur stdDeviation="1"></feGaussianBlur></filter></defs></svg>