<svg xmlns="http://www.w3.org/2000/svg" version="1.1" xmlns:xlink="http://www.w3.org/1999/xlink" xmlns:svgjs="http://svgjs.com/svgjs" width="840" height="1000" preserveAspectRatio="none" viewBox="0 0 840 1000"><g mask="url(&quot;#SvgjsMask1030&quot;)" fill="none"><rect width="840" height="1000" x="0" y="0" fill="rgba(224, 224, 224, 1)"></rect><circle r="9.495" cx="269.095" cy="244.01500000000001" filter="url(#SvgjsFilter1031)" fill="rgba(63, 72, 185, 1)"></circle><circle r="12.825" cx="819.6550000000001" cy="749.3950000000001" filter="url(#SvgjsFilter1031)" fill="rgba(255, 255, 255, 1)"></circle><circle r="10.26" cx="641.31" cy="36.76" filter="url(#SvgjsFilter1031)" fill="rgba(255, 255, 255, 1)"></circle><circle r="9.425" cx="596.4749999999999" cy="111.91499999999999" filter="url(#SvgjsFilter1031)" fill="rgba(63, 72, 185, 1)"></circle><circle r="9.845" cx="276.285" cy="513.045" filter="url(#SvgjsFilter1031)" fill="rgba(63, 72, 185, 1)"></circle><circle r="12.97" cx="829.51" cy="615.82" filter="url(#SvgjsFilter1031)" fill="rgba(63, 72, 185, 1)"></circle><circle r="10.82" cx="74.3" cy="809.2600000000001" filter="url(#SvgjsFilter1031)" fill="rgba(51, 121, 194, 0.58)"></circle><circle r="11.545" cx="89.805" cy="940.735" filter="url(#SvgjsFilter1031)" fill="rgba(51, 121, 194, 0.58)"></circle><circle r="9.595" cx="705.365" cy="885.0350000000001" filter="url(#SvgjsFilter1031)" fill="rgba(255, 255, 255, 1)"></circle><circle r="11.66" cx="394.49" cy="618.5899999999999" filter="url(#SvgjsFilter1031)" fill="rgba(255, 255, 255, 1)"></circle><circle r="8.6" cx="491.47" cy="763.91" filter="url(#SvgjsFilter1031)" fill="rgba(255, 255, 255, 1)"></circle><circle r="9.14" cx="424.71999999999997" cy="200.68" filter="url(#SvgjsFilter1031)" fill="rgba(63, 72, 185, 1)"></circle><circle r="11.31" cx="703.4" cy="300.24" filter="url(#SvgjsFilter1031)" fill="rgba(51, 121, 194, 0.58)"></circle><circle r="10.16" cx="191.74" cy="947.31" filter="url(#SvgjsFilter1031)" fill="rgba(255, 255, 255, 1)"></circle><circle r="12.965" cx="270.35499999999996" cy="185.025" filter="url(#SvgjsFilter1031)" fill="rgba(63, 72, 185, 1)"></circle><circle r="8.13" cx="52.190000000000005" cy="775.85" filter="url(#SvgjsFilter1031)" fill="rgba(255, 255, 255, 1)"></circle><circle r="11.635" cx="591.245" cy="725.655" filter="url(#SvgjsFilter1031)" fill="rgba(51, 121, 194, 0.58)"></circle><circle r="7.385" cx="536.875" cy="688.015" filter="url(#SvgjsFilter1031)" fill="rgba(51, 121, 194, 0.58)"></circle><circle r="9.385" cx="164.125" cy="594.015" filter="url(#SvgjsFilter1031)" fill="rgba(255, 255, 255, 1)"></circle><circle r="8.34" cx="447.27" cy="834.32" filter="url(#SvgjsFilter1031)" fill="rgba(63, 72, 185, 1)"></circle><path d="M365.8 439.6L368.1 455 359.2 451.9C358.3 451.5 357 452 356.2 453.2 356.1 454.4 356.6 455.8 357.9 455.9L368.8 460.1 371.1 472.1 348.3 463.1C347 463 345.7 463.5 345.3 464.4 344.8 465.9 345.3 467.2 346.6 467.4L371.8 477.2 374.7 495.5 355.8 485.7 361.6 506.2 344.3 499.7 339.7 473C340.1 472.7 339.8 472.4 339.5 472 338.9 471.3 338 470.9 337.1 471.1 336.1 471.4 335.3 472.6 335.2 473.8L339.4 497.9 328.2 493.3 326.2 481.7C326.3 481.1 326 480.8 325.7 480.4 325.4 480.1 324.5 479.7 323.5 479.9 322.6 480.1 321.8 481.3 322 482.3L323.3 491.5 308.7 486.3C307.5 485.5 306.4 486.4 305.7 487.6 305.3 488.5 305.8 489.8 307.3 490.2L321.6 495.8 314.4 501.7C313.3 502.5 313.5 504.1 314.1 504.8 314.9 505.9 316.2 506 317.2 505.1L326.5 497.6 337.7 502.2 319.1 517.3C318.1 518.2 317.9 519.4 318.8 520.5 319.4 521.2 320.9 521.6 321.9 520.8L342.6 503.9 359.9 510.4 342.3 521.9 362.7 527.1 348.2 538.9 323.3 529.4C321.7 529 320.7 529.8 320.3 530.7 319.9 531.6 320.4 532.9 321.6 533.7L344.4 542 335.1 549.6 323.8 545.6C322.6 544.9 321.3 545.4 320.9 546.9 320.4 547.8 320.9 549.1 322.5 549.6L331 553 318.9 562.8C317.9 563.7 317.8 564.9 318.6 565.9S320.7 567.1 321.7 566.3L333.8 556.4 335.4 565.4C335.6 567 336.7 567.8 337.7 567.6 339.3 567.4 340.1 566.2 339.6 564.9L337.9 553 347.2 545.5 350.8 569.5C351.3 570.8 352.5 571.6 353.4 571.4 355 571.2 355.8 570 355.3 568.7L351 542.4 365.5 530.6 366.5 551.5 381.3 536.6 384.2 554.9 363.5 571.7C362.5 572.6 362.6 574.2 363.2 574.9 364 575.9 365.3 576 366.3 575.2L385.3 559.7 387.2 571.9 377.9 579.5C376.9 580.4 376.7 581.6 377.6 582.6 378.1 583.3 379.7 583.8 380.7 583L387.9 577.1 390.5 592.2C390.7 593.8 391.8 594.5 393.2 594 394.1 593.8 395.2 593 394.7 591.6L392.4 576.3 401.3 579.4C402.2 579.8 403.5 579.3 403.9 578.4 404.3 577.5 404.1 576.5 403.8 576.1 403.5 575.8 403.3 575.5 402.6 575.4L391.7 571.1 389.4 559.2 412.2 568.1C413.5 568.3 414.8 567.8 415.2 566.9 415.6 566 415.4 565 414.8 564.3 414.5 564 414.5 564 413.9 563.9L388.7 554.1 385.8 535.8 404.7 545.6 398.9 525.1 416.2 531.6 420.8 558.3C421 559.2 421.8 560.3 423.4 560.1 424.4 559.9 425.2 558.7 425.3 557.5L421.1 533.4 432.3 538 434.3 549.5C434.2 550.8 435.4 551.5 437 551.4 437.9 551.2 438.7 550 438.8 548.7L437.2 539.7 451.8 545C453 545.7 454 544.9 454.8 543.7 454.9 543.1 454.6 542.1 454.4 541.8 454.1 541.4 453.8 541.1 453.2 541L438.9 535.5 446.1 529.6C447.1 528.7 447 527.1 446.4 526.4L446.4 526.4C445.6 525.4 444.3 525.3 443.3 526.1L434 533.7 422.8 529.1 441.4 513.9C442.4 513.1 442.5 511.8 441.7 510.8S439.6 509.6 438.6 510.5L417.9 527.3 400.6 520.8 418.2 509.4 397.8 504.1 412.3 492.3 437.2 501.8C438.8 502.3 439.8 501.4 440.2 500.5 440.6 499.6 440.1 498.3 438.9 497.6L416.4 489 425.4 481.7 436.7 485.7C437.9 486.4 439.2 485.9 439.6 484.4 440 483.5 439.5 482.2 438.4 481.4L429.5 478.3 441.6 468.5C442.6 467.6 442.7 466.4 441.9 465.3S439.8 464.2 438.8 465L426.7 474.8 425.1 465.8C425.1 465.2 424.9 464.9 424.6 464.5 424 463.8 423.4 463.8 422.8 463.7 421.2 463.9 420.4 465.1 420.9 466.4L422.6 478.2 413.3 485.8 409.7 461.8C409.4 461.4 409.1 461.1 408.9 460.7 408.3 460 407.7 460 407 459.9 405.5 460.1 404.7 461.3 405.2 462.6L409.5 488.9 395 500.7 394 479.8 379.2 494.7 376.3 476.4 397 459.5C398 458.7 397.9 457.1 397.3 456.4 396.5 455.4 395.2 455.2 394.2 456.1L375.6 471.3 373.3 459.3 382.6 451.7C383.6 450.9 383.8 449.7 382.9 448.6S380.8 447.5 379.8 448.3L372.6 454.2 370 439.1C370.1 438.5 369.8 438.1 369.5 437.8 369.2 437.4 368.3 437 367.3 437.3 366.4 437.5 365.3 438.3 365.8 439.6ZM390.1 489.8L390.9 506.9 407.5 511.1 393 520.7 397.7 537 382.3 529.4 370.4 541.5 369.6 524.3 352.9 520.1 367.1 510.8 362.8 494.3 377.8 502.1 390.1 489.8Z" fill="rgba(51, 121, 194, 0.58)"></path><path d="M607.9 56.8L605 88.9 582.9 107.2 578.1 78.9 596.9 52.7C596.9 52.7 597.1 52.4 597.1 52.4 597.3 51.6 596.9 50.6 596.3 50 595.3 49.2 594 49.5 593.6 50.6L577.1 73.6 574.8 59.8 581.9 49.6C581.9 49.6 582 49.2 582 49.2 582.3 48.5 581.9 47.5 581.3 46.9 580.3 46.1 578.9 46.4 578.5 47.5L573.5 54.4 571.9 44.2C571.8 43.3 570.5 42.4 569.6 42.5 568.4 42.5 567.8 44 567.9 44.8L569.5 55 562.7 49.9C561.7 49.2 560.4 49.5 560 50.6 559.2 51.5 559.5 52.9 560.6 53.3L570.8 60.4 572.8 74 549.9 57.6C548.9 56.8 547.6 57.1 547.2 58.2 546.4 59.2 546.7 60.6 547.8 61L574 79.8 578.8 108.2 551.4 98 537.9 68.5C537.5 67.5 536.4 67.1 535.4 67.6 534.4 68 534 69.1 534.4 70.1L546.3 96.1 533.2 91.2 528.2 80.2C527.7 79.2 526.6 78.8 525.6 79.3 524.6 79.7 524.2 80.8 524.7 81.8L528.1 89.3 517.9 85.5C516.9 84.8 515.8 85.6 515.4 86.7 515 87.8 515.5 88.8 516.5 89.2L526 92.7 518.5 96.1C517.5 96.6 517.1 97.7 517.6 98.7S519.1 100.1 520.1 99.6L531.1 94.6 544.2 99.5 518.2 111.4C517.2 111.8 516.8 112.9 517.3 113.9 517.7 114.9 518.8 115.3 519.8 114.9L549.3 101.4 576.3 111.4 554.1 129.7 522.9 126.8C521.6 126.8 520.9 127.7 520.5 128.8 520.4 130 521.4 130.8 522.5 131.2L550.6 133.8 539.8 142.6 527.4 141.4C526.2 141.3 525.4 142.3 525 143.4 525 144.6 525.9 145.4 526.6 145.6L535.1 146.3 527.2 152.9C526.6 153.5 526.1 155 527 155.7 528 156.5 529.1 156.9 529.8 156L537.7 149.3 537 157.8C537 159 538 159.8 538.7 160.1 539.6 160 540.6 159.5 540.8 158.8 540.8 158.8 541 158.4 541 158.4L542.3 146.1 553 137.2 550.4 165.3C550.4 166.5 551.4 167.3 552.1 167.6 553 167.5 554 167 554.2 166.3 554.2 166.3 554.4 165.9 554.4 165.9L557.2 133.8 579.4 115.5 584.2 143.8 565.3 170C564.5 170.9 564.8 172.3 565.9 172.7 566.9 173.5 568.3 173.2 568.7 172.1L585.1 149.1 587.4 162.9 580.3 173.1C579.5 174.1 579.9 175.4 581 175.8 581.9 176.6 583.3 176.3 583.7 175.2L588.7 168.3 590.3 178.5C590.4 179.4 591.8 180.3 592.6 180.2 593.5 180.1 594.1 179.5 594.4 178.8 594.5 178.4 594.7 178 594.4 177.5L592.8 167.4 599.7 172.4C600.6 173.2 602 172.9 602.4 171.8 602.4 171.8 602.5 171.4 602.5 171.4 602.8 170.7 602.3 169.7 601.7 169L591.5 161.9 589.2 148.2 612.1 164.6C613.1 165.4 614.4 165.1 614.8 164 614.8 164 615 163.6 615 163.6 615.3 162.9 614.8 161.9 614.2 161.2L588 142.4 583.2 114 610.2 124.1 623.7 153.6C624.2 154.6 625.2 155 626.2 154.5 627.2 154.1 627.7 153 627.2 152L615.7 126.1 628.8 131 633.8 142C634.3 143 635.4 143.4 636.4 142.9S637.8 141.4 637.3 140.4L633.9 132.9 643.4 136.4C644.5 136.8 645.5 136.4 645.9 135.3 646.3 134.2 645.8 133.2 644.7 132.8L635.3 129.2 642.8 125.8C643.3 125.6 643.8 125.3 644 124.6S644.1 123.4 643.8 122.9C643.4 121.9 642.3 121.5 641.3 121.9L630.3 127 617.2 122.1 643.2 110.2C643.7 110 644.2 109.7 644.4 109 644.6 108.6 644.5 107.8 644.3 107.3 643.8 106.3 642.7 105.9 641.7 106.3L612.2 119.8 585.2 109.8 607.4 91.5 639.5 94.3C640.4 94.2 641.4 93.8 641.7 93 641.7 93 641.8 92.7 641.8 92.7 641.9 91.4 640.9 90.7 640.2 90.4L612.1 87.8 622.9 79 635.2 80.3C636.1 80.2 637.1 79.7 637.4 79 637.4 79 637.5 78.6 637.5 78.6 637.5 77.4 636.6 76.6 635.9 76.3L627.4 75.7 635.3 69.1C635.4 68.7 635.9 68.5 636 68.1 636.3 67.4 636.2 66.5 635.6 65.9 634.7 65.1 633.6 64.7 632.8 65.7L624.9 72.3 625.6 63.8C625.6 62.6 624.7 61.8 624 61.5 622.7 61.5 622 62.4 621.7 63.2L620.4 75.6 609.6 84.4 612.2 56.3C612.2 55.1 611.3 54.3 610.6 54.1 609.1 54.7 607.9 55.6 607.9 56.8Z" fill="rgba(255, 255, 255, 1)"></path><path d="M126.1 649.4L130.6 680.1 123.6 689 122.1 678.6C122.3 677.5 121.1 677 120 676.8 119.2 677.1 118.2 678.2 118.5 679L120.3 693.3 113.7 702.3 109.5 692 115.1 678.6C115.1 678.6 115.1 678.2 115.1 678.2 115.2 677.4 114.5 676.5 113.8 676.1 112.6 675.9 111.8 676.2 111.3 677.3L107.4 687 103.1 676.7 114.5 647.9C114.5 647.9 115 647.6 115 647.6 115.1 646.8 114.4 646 113.7 645.5 112.5 644.9 111.3 645.6 111.2 646.7L101 671.7 95.5 659.3 100 648.1C100 648.1 100 648.1 100.1 647.7 100.2 646.9 99.9 646.1 99.1 645.6 98 645.5 96.8 645.7 96.2 646.9L93.4 654.3 89.4 645.2C89.2 644 88 643.9 87.2 644.2 86 644.4 85.4 645.5 86.1 646.8L89.7 655.8 82.6 652.6C81.4 652.5 80.2 652.7 80.1 653.9 79.6 655 79.9 655.8 81 656.3L92.2 660.8 97.3 673.2 71.9 663.1C71.2 662.6 69.9 663.2 69.4 664.3 69.3 665.1 69.6 666.3 70.7 666.8L99.4 678.2 103.6 688.5 93.9 684.6C92.8 684 92 684.7 91.4 685.8 91 686.6 91.6 687.8 92.3 688.3L105.8 693.5 110.4 703.8 99.2 702.5 90.4 691.2C89.7 690.3 88.6 690.2 87.7 690.9 86.9 691.1 86.7 692.7 87.4 693.6L93.8 701.8 82.6 700.4 63.7 675.8C63 674.9 61.9 674.7 61 675.4 60.1 676.1 60 677.3 60.7 678.1L77.2 699.8 64.1 698.1 56.6 688.6C55.9 687.7 54.8 687.6 53.9 688.3 53.1 688.9 52.9 690.1 53.6 691L58.3 697.4 48.6 696.2C47.5 696.1 46.6 696.8 46.5 697.9 46.3 699.1 47 699.9 48.1 700.1L57.8 701.3 51.7 706C50.9 706.7 50.7 707.8 51.4 708.7S53.2 709.7 54.1 709L63.2 701.9 76.7 703.6 55.5 720.2C54.6 720.9 54.5 722 55.1 722.9 55.8 723.8 57 723.9 57.8 723.2L82.1 704.3 93.3 705.7 85.1 712.1C84.2 712.8 84.1 713.9 84.7 714.8 85.4 715.7 86.6 715.8 87.4 715.1L98.7 706.3 109.5 707.7 103 716.3 88.6 718.4C87.8 718.7 86.9 719.8 87.2 720.6 87.4 721.8 88.1 722.3 89.3 722.4L99.7 720.9 93.1 729.5 62.4 734C61.2 734.2 60.7 734.9 60.6 736.1 60.8 737.3 61.9 737.8 62.7 737.9L89.8 734.2 81.4 744.9 69.8 746.6C68.7 746.5 68.1 747.6 68 748.8 68.3 749.6 69.4 750.5 70.6 750.3L78.1 749.2 72.5 757.2C71.6 757.8 71.8 759 72.9 760 73.6 760.4 74.8 760.2 75.3 759.5L81.4 751.6 82.4 759.6C82.6 760.8 83.7 761.3 84.5 761 85.7 761.1 86.2 760.4 86.3 759.6 86.3 759.3 86.3 759.3 86.4 758.9L84.6 747.3 93 736.6 96.8 763.3C96.6 764.5 97.7 765 98.9 765.1 99.7 764.8 100.2 764.1 100.3 763.3 100.3 762.9 100.3 762.9 100.3 762.9L96.3 731.9 102.9 723.3 104.4 733.7C104.6 734.9 105.3 735.3 106.5 735.5 107.3 735.2 108.2 734.5 108.3 733.8 108.3 733.4 108.3 733.4 108.4 733L106.2 718.6 112.8 710 117 719.9 111.8 733.4C111.3 734.5 111.9 735.8 112.7 736.3 113.8 736.4 115 736.2 115.2 735L119.1 725.3 123.7 735.3 111.9 764.4C111.4 765.1 112.1 766.4 112.8 766.8 114 767 115.2 766.7 115.7 765.6L125.8 740.6 131 753 126.5 763.8C126 764.9 126.6 766.2 127.8 766.3 128.5 766.8 129.7 766.6 130.2 765.5L133.1 758 137.1 767.1C137.4 767.9 138.5 768.4 139.7 768.2 140.1 767.9 140.6 767.1 140.7 766.4 140.7 766.4 140.7 766 140.8 765.6L136.8 756.5 144.3 759.4C145 759.8 146.3 759.2 146.7 758.5 146.8 758.1 146.8 758.1 146.8 758.1 146.9 756.9 146.3 756.1 145.5 756L134.7 751.5 129.2 739.1 154.5 749.3C155.7 749.4 156.5 749.1 157 748 157 748 157.1 747.6 157.1 747.6 157.2 746.8 156.9 746 155.8 745.5L127.1 733.7 122.8 723.8 132.5 727.7C133.7 727.9 134.9 727.6 135 726.5 135.4 726.5 135.5 726.1 135.5 726.1 135.5 725.4 134.9 724.5 134.1 724L120.7 718.8 116.5 708.5 127.3 709.8 136.1 721.1C136.7 722 138.3 722.2 139.2 721.5 139.6 720.8 139.8 719.6 139.5 718.8L132.7 710.5 143.9 711.9 162.8 736.2C163.5 737 164.7 737.2 165.5 736.5 166.4 735.8 166.5 734.7 165.9 733.8L149.3 712.6 162.8 714.2 169.9 723.3C170.6 724.2 171.7 724.3 172.6 723.7S173.6 721.8 172.9 721L168.2 714.9 177.8 716.1C179 716.2 179.9 715.5 180 714.4 180.1 713.2 179.5 712.4 178.3 712.2L168.7 711 174.8 705.9C175.2 705.6 175.6 705.2 175.7 704.8 175.7 704.5 175.4 703.6 175.1 703.2 174.4 702.3 173.3 702.2 172.4 702.9L163.3 710.4 149.7 708.7 171 691.7C171.5 691.4 171.9 691.1 172 690.7 172 690.3 171.7 689.5 171.4 689 170.7 688.2 169.5 688 168.7 688.7L144.3 708 133.2 706.7 141.8 700.3C142.2 699.9 142.3 699.2 142.4 698.8 142.4 698.4 142.4 698 142.1 697.6 141.4 696.7 139.9 696.5 139.4 697.2L127.7 706 116.9 704.7 123.5 695.7 137.9 693.9C138.7 693.6 139.5 692.9 139.6 692.2 139.7 691.8 139.7 691.8 139.3 691.7 139.4 690.6 138.4 689.7 137.2 689.9L126.8 691.4 133.4 682.4 164.5 678.4C165.3 678.1 165.8 677.4 165.9 676.6 165.9 676.2 165.9 676.2 165.9 676.2 165.7 675 165 674.1 163.8 674.4L136.7 678.1 145 667.4 156.6 665.7C157.8 665.4 158.3 664.7 158.4 663.9 158.4 663.9 158.5 663.5 158.5 663.5 158.2 662.3 157.1 661.8 156.3 661.7L148.3 663.1 154.4 655.2C154.4 654.8 154.5 654.4 154.5 654 154.6 653.7 154.3 652.8 153.9 652.4 152.8 651.9 151.7 651.7 151.2 652.8L145.1 660.7 144.1 652.8C143.9 651.5 142.8 651 142 650.9 140.8 651.2 140.2 652.3 140.1 653.4L141.8 665 133.8 675.8 130.1 649.1C129.8 647.9 128.8 646.9 127.9 647.2 126.7 647.5 125.9 648.2 126.1 649.4Z" fill="rgba(255, 255, 255, 1)"></path><path d="M492.3 757.4L513.3 727.2 523.2 725.1 538 742.4 534.7 752.2 501.3 767.8C500.9 768.1 500.9 768.1 500.6 768.4 499.9 769 499.5 769.9 500.1 771.2 500.9 772.2 501.8 772.6 503.1 772.1L532.3 758.3 527 773.3 514.2 779.6C514.2 779.6 513.9 779.9 513.9 779.9 513.2 780.4 512.8 781.4 513.3 782.7 513.6 783.6 515.1 784.1 516.4 783.5L524.9 779.8 520.9 790.8C520.5 791.7 521 793 522.2 793.8S524.8 793.3 525.5 792.1L529.2 781.4 533.3 789.6C533.8 790.9 535.3 791.3 536.7 790.8 537.3 790.2 538.1 789 537.5 787.7L531.3 774.9 536.9 759.6 550.7 788.8C551.2 790.1 552.8 790.5 553.7 790.3 554.7 789.4 555.5 788.2 554.9 786.9L538.9 753.8 542.6 743.7 564.3 739.7 571.3 747.8 568.7 784.5C568.6 785.8 569.4 786.8 570.7 786.9S573 786.1 573.1 784.9L575.3 752.6 586 765.1 584.9 778.8C584.8 780.1 585.6 781.1 587.2 781.6S589.5 780.8 589.6 779.5L590 769.8 597.8 778.9C598.7 779.9 600.3 779.7 601.3 778.9 602.3 778 602.4 776.8 601.5 775.7L593.7 766.6 603.1 767.4C604.7 767.8 605.7 766.9 605.5 765.3 605.6 764.1 604.7 763.1 603.5 763L589.7 761.9 579 749.4 611.3 752.2C612.5 752.3 613.9 751.2 614 749.9S613.2 747.7 611.9 747.6L575 744.6 568 736.5 575.7 715.4 585.9 713.7 616.1 734.7C617.3 735.4 618.6 734.9 619.6 734 620.4 732.8 619.8 731.5 619 730.5L592.3 712.3 608 709.4 619.7 717.6C620.9 718.3 622.2 717.8 623.2 716.9 623.6 716 623.4 714.4 622.2 713.7L614.7 708.4 626.2 706.1C627.2 705.9 627.9 704.7 628 703.4 627.5 702.1 626.3 701.4 625.3 701.7L613.8 703.9 619.2 695.8C619.6 694.9 619.4 693.3 618.5 692.9 617.6 691.9 616.6 692.1 615.6 693 615.6 693 615.3 693.3 615.3 693.3L607.1 704.9 591.4 707.8 609.6 681.2C610.3 680 610.4 678.7 609.2 678 608 677.3 607.1 677.5 606.4 678.1 606 678.4 606 678.4 606 678.4L585 709.2 574.8 710.9 560.1 693.7 563.7 684.2 597.1 667.9C598.1 667.7 598.5 666.1 598.3 665.2 597.7 663.9 596.2 663.4 594.9 663.9L565.7 677.7 571 662.7 583.8 656.4C585.1 655.9 585.8 654.7 585 653.7 584.5 652.4 582.9 652 581.9 652.2L573.4 656.6 577.4 645.5C577.5 644.3 577 643 575.8 642.3 575.2 642.2 574.2 642.4 573.5 643 573.2 643.3 573.2 643.3 573.1 643.9L569.1 655 564.7 646.4C564.2 645.1 563 645 562 645.3 561.7 645.6 561.7 645.6 561.3 645.8 560.6 646.4 560.3 647.3 560.5 648.3L566.7 661.1 561.5 676.1 547.7 647C546.8 646 545.6 645.2 544.6 646.1 544 646.1 544 646.1 543.6 646.3 543 646.9 542.9 648.2 543.1 649.1L559.4 682.6 555.8 692.1 533.7 696.3 527.1 688.5 530 651.6C530.1 650.3 528.9 649 527.7 648.9S525.1 649.9 525 651.2L522.7 683.5 512.3 671.3 513.1 657.2C513.2 655.9 512.4 654.9 511.1 654.8 509.9 654.7 508.9 655.6 508.8 656.8L508 666.2 500.2 657.1C499.6 656.4 498.1 656 497.1 656.9 496.1 657.7 495.9 659.6 496.5 660.3L504.3 669.4 494.9 668.7C494.3 668.6 493.6 668.6 493.3 668.9 492.6 669.4 492.6 670.1 492.5 670.7 492.4 671.9 493.3 673 494.6 673.1L508.6 674.5 519 686.6 486.8 683.8C486.1 683.7 485.8 684 485.1 684.6 484.8 684.9 484.5 685.2 484.4 685.8 484.3 687.1 485.5 688.4 486.7 688.5L523.3 691.7 530 699.5 522.7 720.3 512.4 722.7 481.9 701.4C481 701 479.7 700.9 479.1 701.5 478.7 701.8 478.7 701.8 479 702.1 478 703 478.2 704.5 479.4 705.3L506 723.4 490 726.6 478.4 718.4C477.4 718 476.5 718.3 475.8 718.9 475.8 718.9 475.5 719.1 475.5 719.1 474.5 720 474.6 721.6 475.9 722.3L483.9 727.7 472.4 729.9C471.8 729.9 471.4 730.2 471.1 730.5 470.4 731 470 732 470.3 732.3 470.5 733.9 471.7 734.6 473 734.7L484.5 732.5 479.2 739.9C478.5 741.1 478.7 742.7 479.9 743.5 480.8 743.8 482.4 743.6 482.8 742.7L490.9 731.1 506.6 728.2 488.4 754.8C487.7 756 488.2 757.4 489.1 758.4 490 758.8 491.6 758.6 492.3 757.4ZM539.9 737.2L528.7 724 527 721.9 527.8 719.5 533.4 703.5 534.6 700.8 537.2 700.4 553.8 697.3 556.4 696.8 558.1 698.9 569.3 712.1 571.1 714.1 570.3 716.5 564.6 732.5 563.8 734.9 560.9 735.7 544.2 738.8 541.7 739.2 539.9 737.2Z" fill="rgba(255, 255, 255, 1)"></path><path d="M149.9 1013.1L136.8 984.9 140.9 974.3 145.3 983.9C145.5 985 146.7 985.2 147.9 985 148.6 984.5 149.1 983.2 148.6 982.5L142.8 969.3 146.5 958.8 153.5 967.5 152.1 981.9C152.1 981.9 152.1 982.3 152.1 982.3 152.3 983.1 153.2 983.7 154 984 155.1 983.8 155.8 983.2 156 982L157 971.6 164 980.3 161.4 1011.1C161.4 1011.1 161.1 1011.5 161.1 1011.5 161.2 1012.3 162.1 1012.9 162.9 1013.2 164.1 1013.4 165.2 1012.4 165 1011.3L167.5 984.4 176.3 994.7 175.2 1006.8C175.2 1006.8 175.2 1006.8 175.3 1007.1 175.4 1007.9 175.9 1008.6 176.8 1008.9 177.9 1008.7 179 1008.1 179.2 1006.9L179.8 998.9 186.2 1006.5C186.8 1007.5 188 1007.4 188.7 1006.8 189.7 1006.3 189.9 1005 189 1004L182.9 996.4 190.6 997.4C191.8 997.2 192.8 996.7 192.6 995.5 192.8 994.3 192.3 993.6 191.1 993.4L179.1 992.3 170.6 981.9 197.9 984.4C198.7 984.6 199.7 983.7 199.9 982.4 199.8 981.7 199.2 980.6 198 980.4L167.1 977.8 160.1 969.1 170.6 970.1C171.8 970.3 172.4 969.4 172.6 968.2 172.9 967.3 171.9 966.3 171.1 966.1L156.7 965 149.3 956.4 160.4 954.5 172.1 962.7C173 963.4 174.1 963.2 174.8 962.3 175.5 961.8 175.2 960.2 174.3 959.6L165.8 953.5 176.9 951.6 202.1 969.8C203 970.5 204.1 970.3 204.8 969.4 205.4 968.5 205.2 967.3 204.3 966.7L182.3 950.7 195.3 948.5 205.2 955.5C206.1 956.1 207.2 955.9 207.8 955 208.5 954.1 208.3 953 207.4 952.4L201 947.5 210.6 945.9C211.8 945.7 212.4 944.8 212.2 943.6 212 942.5 211.1 941.9 210 942.1L200.4 943.7 204.8 937.4C205.5 936.5 205.3 935.4 204.4 934.7S202.3 934.3 201.7 935.2L195 944.6 181.6 946.9 197.2 924.9C197.8 924 197.6 922.9 196.7 922.2 195.8 921.6 194.7 921.8 194 922.7L176.2 947.8 165.1 949.7 171.2 941.2C171.8 940.3 171.6 939.1 170.7 938.5 169.8 937.9 168.6 938.1 168 939L159.7 950.6 149 952.5 152.8 942.3 166 936.1C166.7 935.6 167.2 934.4 166.7 933.7 166.1 932.6 165.3 932.3 164.2 932.5L154.6 936.9 158.4 926.8 186.6 913.7C187.7 913.1 187.9 912.3 187.7 911.1 187.1 910 185.9 909.9 185.2 910L160.3 921.3 165.2 908.7 175.8 903.7C177 903.5 177.1 902.3 176.9 901.1 176.4 900.4 175.2 899.9 174.1 900.4L167.1 903.6 170.3 894.4C170.9 893.5 170.3 892.4 169 891.8 168.2 891.6 167.1 892.2 166.9 893L163.3 902.3 160.1 894.9C159.5 893.8 158.3 893.7 157.6 894.2 156.5 894.4 156.2 895.2 156.3 896 156.4 896.4 156.4 896.4 156.5 896.7L161.4 907.3 156.5 920 145.2 895.5C145 894.4 143.8 894.2 142.7 894.4 142 894.9 141.7 895.7 141.8 896.5 141.9 896.9 141.9 896.9 141.9 896.9L154.7 925.5 150.9 935.6 146.5 926.1C145.9 925 145.1 924.7 143.9 924.9 143.2 925.4 142.6 926.3 142.7 927.1 142.8 927.5 142.8 927.5 142.8 927.9L149 941 145.2 951.1 138.3 942.8 139.4 928.5C139.6 927.2 138.6 926.2 137.8 926 136.6 926.2 135.6 926.7 135.7 927.9L134.8 938.3 127.4 930.1 130.4 898.8C130.6 898 129.7 897 128.9 896.7 127.7 896.9 126.6 897.5 126.4 898.7L123.9 925.6 115.4 915.2 116.6 903.5C116.8 902.3 115.8 901.3 114.7 901.5 113.8 901.2 112.8 901.8 112.6 903L112 911 105.5 903.5C105 902.8 103.8 902.6 102.7 903.1 102.4 903.6 102.2 904.4 102.3 905.2 102.3 905.2 102.4 905.6 102.4 906L108.8 913.5 100.8 912.9C100 912.7 99 913.6 98.7 914.5 98.8 914.9 98.8 914.9 98.8 914.9 99 916 99.9 916.6 100.7 916.5L112.3 917.7 121.2 928 93.9 925.6C92.8 925.8 92.1 926.3 91.9 927.5 91.9 927.5 92 927.9 92 927.9 92.1 928.6 92.6 929.3 93.8 929.5L124.7 932.5 131.6 940.8 121.2 939.8C120.1 940 119 940.6 119.2 941.8 118.8 941.8 118.9 942.2 118.9 942.2 119 943 119.9 943.6 120.7 943.9L135.1 945 142.1 953.6 131.4 955.5 119.7 947.2C118.8 946.6 117.3 946.8 116.6 947.7 116.4 948.5 116.6 949.7 117.1 950.4L126 956.4 114.9 958.3 89.8 940.5C88.9 939.8 87.7 940 87.1 940.9 86.4 941.8 86.6 943 87.5 943.6L109.5 959.2 96.1 961.5 86.7 954.8C85.8 954.2 84.6 954.4 84 955.3S83.6 957.3 84.5 957.9L90.7 962.4 81.2 964C80 964.2 79.4 965.1 79.6 966.3 79.8 967.4 80.7 968.1 81.8 967.9L91.4 966.2 87 972.9C86.7 973.3 86.4 973.8 86.4 974.2 86.5 974.6 87 975.3 87.5 975.6 88.4 976.2 89.5 976 90.2 975.1L96.8 965.3 110.2 963 94.7 985.4C94.3 985.8 94 986.3 94.1 986.7 94.2 987.1 94.7 987.8 95.1 988.1 96 988.7 97.2 988.5 97.8 987.6L115.5 962.1 126.7 960.2 120.2 968.8C119.9 969.2 120.1 970 120.1 970.4 120.2 970.8 120.2 971.2 120.7 971.5 121.6 972.1 123.1 971.9 123.4 971L132 959.3 142.8 957.5 139 968 125.8 973.8C125.1 974.3 124.5 975.2 124.6 975.9 124.7 976.3 124.7 976.3 125.1 976.3 125.3 977.4 126.5 978 127.6 977.4L137.1 973 133.4 983.5 104.8 996.3C104.1 996.8 103.9 997.6 104 998.4 104.1 998.8 104.1 998.8 104.1 998.8 104.6 999.9 105.5 1000.5 106.6 999.9L131.5 988.6 126.6 1001.3 116 1006.2C114.9 1006.8 114.6 1007.6 114.8 1008.4 114.8 1008.4 114.8 1008.8 114.8 1008.8 115.4 1009.9 116.6 1010.1 117.4 1009.9L124.7 1006.3 121.1 1015.6C121.2 1016 121.3 1016.4 121.3 1016.7 121.4 1017.1 121.9 1017.8 122.3 1018.1 123.6 1018.3 124.7 1018.1 124.9 1016.9L128.4 1007.6 131.7 1015C132.2 1016.1 133.5 1016.3 134.2 1016.1 135.3 1015.5 135.5 1014.3 135.3 1013.2L130.3 1002.6 134.9 990 146.2 1014.5C146.8 1015.6 148 1016.1 148.7 1015.6 149.8 1015 150.5 1014.1 149.9 1013.1Z" fill="rgba(255, 255, 255, 1)"></path><path d="M365.2 208.8L331.5 223.7 300.9 211.6 326.6 191.2 363.2 195.6C363.2 195.6 363.7 195.5 363.7 195.5 364.6 195.4 365.3 194.4 365.6 193.4 365.9 192 364.8 190.8 363.5 191L331.4 187.3 343.9 177.4 358 178.8C358 178.8 358.5 178.8 358.5 178.8 359.4 178.6 360.1 177.6 360.4 176.7 360.7 175.3 359.6 174.1 358.3 174.3L348.6 173 357.9 165.8C358.7 165.2 358.9 163.4 358.3 162.6 357.7 161.4 355.9 161.6 355.1 162.2L345.8 169.4 347.1 159.8C347.3 158.4 346.3 157.2 344.9 157.4 343.6 157.2 342.4 158.3 342.6 159.6L341.1 173.7 328.6 183.2 332.3 151.2C332.6 149.8 331.5 148.6 330.2 148.8 328.8 148.6 327.6 149.7 327.8 151L323.4 187.6 297.7 208.1 292.8 175.1 314.8 145.3C315.6 144.3 315.4 143 314.4 142.2 313.3 141.5 312 141.7 311.3 142.7L291.8 169 289.5 153.1 297.7 142C298.4 141 298.2 139.7 297.2 139 296.2 138.2 294.9 138.4 294.2 139.4L288.6 147 286.7 134.7C287 133.3 285.5 132.6 284.2 132.8 282.9 133 282.1 134 282.3 135.3L284 146.8 276.4 141.2C275.4 140.4 274.1 140.6 273.4 141.6S272.8 144 273.8 144.7L285 152.9 287.3 168.7 261 149.3C260 148.6 258.7 148.8 258 149.8 257.2 150.8 257.4 152.1 258.4 152.9L288.2 174.9 293.1 207.4 262.5 195.4 248.2 162.5C247.5 161.2 246.2 161 244.8 161.2 243.6 161.8 243.3 163.2 243.5 164.5L256.5 194 241.7 188.2 236.1 175.1C235.5 173.8 234.1 173.6 232.8 173.8 231.5 174.4 231.3 175.8 231.4 176.7L235.5 185.5 224.5 181.3C223.5 181 221.8 181.3 221.5 182.6 221.3 184 221.5 185.4 222.9 185.6L233.8 189.8 225 193.8C223.8 194.4 223.5 195.8 223.6 196.7 224.2 197.5 225.2 198.3 226.1 198.1 226.1 198.1 226.6 198.1 226.6 198.1L239.6 192.5 254.5 198.4 224.9 211.3C223.7 212 223.4 213.4 223.6 214.2 224.2 215.1 225.2 215.8 226 215.7 226 215.7 226.5 215.6 226.5 215.6L260.2 200.7 290.8 212.7 265.1 233.2 228.5 228.8C227.1 228.6 225.9 229.6 226.1 231 225.8 232.3 226.9 233.5 228.2 233.3L260.3 237.1 247.8 247 233.7 245.5C232.3 245.3 231.1 246.4 231.3 247.7 231 249.1 232.1 250.3 233.4 250.1L243.1 251.3 233.8 258.6C233 259.1 232.8 261 233.4 261.8 234 262.6 234.9 262.9 235.8 262.8 236.2 262.7 236.7 262.6 237 262.1L246.3 254.9 245 264.5C244.8 265.9 245.9 267.1 247.2 266.9 247.2 266.9 247.6 266.8 247.6 266.8 248.5 266.7 249.3 265.7 249.6 264.7L251 250.6 263.5 240.6 259.7 272.6C259.5 274 260.6 275.2 261.9 275 261.9 275 262.3 275 262.3 275 263.2 274.8 264 273.8 264.3 272.9L268.7 236.3 294.4 215.8 299.2 248.3 277.2 278.1C276.4 279.1 276.6 280.5 277.7 281.2 278.7 281.9 280 281.7 280.7 280.7L300.2 254.9 302.6 270.7 294.4 281.8C293.6 282.9 293.8 284.2 294.8 284.9S297.2 285.5 297.9 284.5L303.5 276.9 305.2 288.3C305.4 289.6 306.4 290.4 307.8 290.2 309.1 290 309.8 289 309.6 287.6L307.9 276.2 315.5 281.8C316 282.2 316.5 282.6 317.4 282.4S318.6 281.8 319 281.3C319.8 280.3 319.6 279 318.6 278.2L307.4 270 305.1 254.2 331.3 273.6C331.8 274 332.4 274.4 333.2 274.2 333.7 274.2 334.5 273.6 334.9 273.1 335.6 272.1 335.4 270.7 334.4 270L304.6 248 299.7 215.4 330.3 227.5 345.2 261.2C345.8 262 346.8 262.8 347.7 262.6 347.7 262.6 348.1 262.6 348.1 262.6 349.4 261.9 349.6 260.5 349.5 259.7L336.5 230.1 351.3 236 356.9 249.1C357.5 249.9 358.5 250.7 359.3 250.5 359.3 250.5 359.8 250.5 359.8 250.5 361 249.8 361.3 248.4 361.1 247.6L357.1 238.7 368.1 242.9C368.5 242.9 369 243.2 369.5 243.2 370.4 243 371.2 242.5 371.5 241.5 371.7 240.1 371.5 238.8 370.1 238.6L359.2 234.4 368 230.4C369.3 229.7 369.5 228.3 369.4 227.5 368.7 226.2 367.3 226 366.5 226.1L353.4 231.7 338.6 225.8 368.1 212.8C369.3 212.2 369.6 210.8 369.4 209.9 367.9 208.8 366.5 208.1 365.2 208.8Z" fill="rgba(63, 72, 185, 1)"></path><path d="M677.2 865.7L677.6 879.6 669.2 875.5C668.3 875 667 875.3 666.1 876.4 665.8 877.6 666.2 879 667 879.5L678 885.2 678.3 898.1 656.1 886.4C654.7 885.8 653.3 886.1 653 887.4 652.1 888.5 652.5 889.8 654 890.5L678.5 903.3 679.1 915 656.2 929.6 646.9 925 646.1 895.5C645.8 895.1 645.6 894.7 645.4 894.4 645.1 894 644.3 893.5 643.7 893.3 642.1 893.3 641.2 894.4 641.5 895.7L642.3 922.6 631.1 916.6 630.3 902.9C630.6 902.7 630.4 902.3 630.2 901.9 629.7 901.2 628.8 900.7 627.8 900.8 626.9 900.9 626 902 625.7 903.2L626.4 914.3 612.3 907C611.4 906.5 610.1 906.8 609.2 907.9 608.9 909.1 609.3 910.5 610.1 911L623.4 917.8 615.5 922.8C614.4 923.5 614.4 925.1 614.9 925.9 615.6 927 617 927.7 618.2 926.9L628.3 920.5 639.5 926.5 618.5 939.9C617.4 940.6 617.1 941.8 617.8 943 618.5 944.1 619.8 944.4 620.9 943.6L644.1 928.8 654 933.6 655.1 960.9 646.4 966.4 621.3 953.4C620.2 952.5 618.5 953.1 618.2 954.3 617.3 955.4 618 956.5 619.1 957.4L641.9 969.2 631.1 976.2 619.8 970.1C619 969.6 617.3 970.2 616.7 971.1S616.8 973.6 617.9 974.5L626.6 979 613.4 987.4C612.3 988.1 612.3 989.7 613 990.8 613.5 991.6 614.9 992.2 616.1 991.5L629.2 983.2 629.8 993.3C629.9 994.3 630.7 995.4 632.3 995.4 633.2 995.3 634.5 994 634.4 993L633.7 980.3 644.6 973.4 645.6 999C646 1000.4 646.7 1001.5 648.3 1001.6 649.3 1001.5 650.5 1000.1 650.4 999.1L649.1 970.5 657.7 965 682 977.5 682.1 988.5 658.8 1003.3C657.7 1004 657.4 1005.2 658.2 1006.3 658.9 1007.5 660.3 1008.1 661.5 1007.4L682.5 994 683.2 1006.7 673.1 1013.2C671.9 1013.9 671.7 1015.1 672.4 1016.2 673.1 1017.4 674.3 1017.6 675.4 1016.9L683.3 1011.9 683.9 1026.8C684 1027.8 685.3 1029.1 686.3 1029 687.7 1028.6 688.8 1027.9 688.4 1026.6L688 1011 697.5 1016C698.8 1016.3 700.1 1016 700.6 1015.1 701.1 1014.3 701 1013.3 700.6 1012.5 700.6 1012.5 700.3 1012.1 699.7 1012L687.6 1005.5 686.9 992.8 711 1004.9C712.1 1005.7 713.4 1005.4 714.1 1003.9 714.2 1003.3 714.3 1002.7 713.9 1002 713.6 1001.6 713.4 1001.2 713.1 1000.8L686.8 987.6 686.5 977.2 709.4 962.7 719.8 968.2 721 995.8C721 997.4 722.1 998.3 723.4 998 724.7 998.2 725.6 997.1 725.6 995.5L724.4 970.5 736 976.3 736.5 988.6C736.6 989.6 737.7 990.5 738.9 990.8 740.2 990.4 741.4 989.7 741 988.3L740.9 979 753.3 985.3C754.4 986.2 755.5 985.4 756.4 984.4 756.5 983.7 756.4 982.8 756 982 756 982 755.7 981.6 755.5 981.3L742.2 974.4 751.6 968.5C752.3 968 753 966.5 752.2 965.4 751.5 964.3 749.9 964.2 749.2 964.7L737.5 972.1 726 966.3 748.8 951.8C750 951.1 750 949.5 749.3 948.3S747.3 946.9 746.2 947.6L721.1 963.6 711.6 958.6 710.5 931.4 720.3 925.2 745.7 938.5C746.9 938.8 748.2 938.4 749.1 937.4 749.3 936.7 749.2 935.8 748.7 935 748.4 934.6 748.2 934.3 747.6 934.1L724.8 922.3 735.7 915.4 747.3 921.2C748.1 921.7 749.5 921.3 750.4 920.2 750.6 919 750.3 917.7 749.4 917.1L740.2 912.5 752.2 904.9C752.9 904.4 753.3 902.5 752.8 901.8 752.1 900.7 750.3 900.3 749.5 900.7L737.5 908.4 737.5 898.4C737.3 898 737 897.6 736.8 897.3 736.3 896.5 735.5 896 734.8 895.9 733.5 896.2 732.6 897.3 732.3 898.5L733 911.2 722.2 918.2 721.1 892.5C721.1 890.9 720 890 719.1 890.1 717.5 890.1 716.6 891.2 716.3 892.4L717.7 921 707.9 927.2 683.6 914.8 683.1 904 708.3 888C709.4 887.3 709.7 886.1 708.9 885 708.2 883.8 707 883.6 705.9 884.3L683 898.8 682.7 885.9 694.3 878.5C695 878 695.4 876.2 694.7 875 694 873.9 692.4 873.9 691.7 874.4L682.3 880.3 681.7 865.4C681.5 865 681.5 865 681.3 864.7 680.8 863.9 679.9 863.4 679.3 863.3 677.9 863.6 677.1 864.7 677.2 865.7ZM703.4 930.1L706 931.6 706 934.2 706.9 956.3 707 958.9 704.8 960.3 686.4 972 684.1 973.5 681.8 972.3 662.2 962.1 659.9 961 659.6 958 658.9 936.3 658.6 933.3 660.8 931.9 679.2 920.2 681.5 918.8 684 920.3 703.4 930.1Z" fill="rgba(63, 72, 185, 1)"></path><path d="M403.8 803.5L390.1 800.8 396 793.5C396.7 792.8 396.7 791.4 395.9 790.3 394.7 789.7 393.3 789.8 392.6 790.5L384.6 799.8 371.9 797.2 388.4 778.3C389.4 777 389.4 775.6 388.2 775.1 387.4 773.9 386 774 385 775.2L366.8 796.1 355.3 794 346.4 768.4 353.1 760.4 381.9 766.4C382.4 766.3 382.8 766.1 383.2 766 383.6 765.8 384.3 765.1 384.6 764.6 385 763 384.1 761.9 382.7 761.9L356.4 756.5 364.8 747 378.4 749.3C378.5 749.7 378.9 749.6 379.3 749.4 380.2 749.2 380.9 748.4 381 747.5 381.1 746.5 380.3 745.4 379.1 744.8L368.2 743 378.6 730.9C379.2 730.2 379.2 728.8 378.4 727.7 377.2 727.1 375.8 727.1 375.1 727.8L365.4 739.2 362.4 730.4C361.9 729.1 360.4 728.7 359.6 729 358.3 729.5 357.3 730.7 357.8 732L361.7 743.3 353.2 752.9 345.1 729.3C344.6 728.1 343.5 727.5 342.3 728 341 728.4 340.4 729.5 340.9 730.8L349.9 756.8 343 765.4 316.2 760.1 312.9 750.4 331.3 729C332.4 728.1 332.3 726.3 331.1 725.7 330.3 724.6 329 725 327.9 725.9L311.1 745.4 306.9 733.2 315.4 723.7C316 723 315.9 721.1 315.2 720.4S312.6 719.9 311.5 720.8L305.1 728.1 300 713.5C299.6 712.2 298.1 711.8 296.8 712.2 296 712.5 295 713.8 295.4 715.1L300.5 729.8 290.5 728C289.5 727.9 288.3 728.4 287.9 729.9 287.8 730.9 288.8 732.4 289.7 732.6L302.3 734.8 306.5 747 281.3 742.1C279.9 742.1 278.6 742.5 278.2 744.1 278.1 745.1 279.1 746.6 280.1 746.7L308.3 752 311.6 761.7 293.9 782.4 283.2 780 274.1 754C273.7 752.7 272.6 752.2 271.3 752.6 270 753 269.1 754.3 269.5 755.6L277.7 779.1 265.1 776.9 261.2 765.5C260.8 764.3 259.6 763.7 258.4 764.1 257.1 764.6 256.6 765.7 257 767L260.1 775.8 245.4 772.9C244.4 772.7 242.9 773.8 242.8 774.7 242.8 776.1 243.2 777.4 244.6 777.4L259.8 780.6 252.8 788.7C252.2 789.8 252.2 791.2 252.9 791.9 253.7 792.6 254.6 792.7 255.5 792.4 255.5 792.4 255.9 792.3 256.2 791.7L265.3 781.5 277.9 783.7 260.5 804.3C259.4 805.2 259.4 806.6 260.7 807.5 261.3 807.8 261.9 808.1 262.7 807.8 263.1 807.7 263.5 807.5 264 807.4L282.9 784.8 293.1 786.9 302 812.5 294.2 821.3 267 816.2C265.5 815.8 264.4 816.6 264.4 818 263.8 819.2 264.7 820.3 266.2 820.7L290.9 825.3 282.6 835.2 270.5 832.9C269.5 832.7 268.4 833.6 267.8 834.7 267.8 836.1 268.3 837.4 269.7 837.4L278.8 839.4 269.8 850C268.7 850.9 269.1 852.1 270 853.3 270.6 853.5 271.6 853.7 272.4 853.4 272.4 853.4 272.8 853.2 273.2 853.1L282.9 841.7 286.6 852.2C286.9 853 288.1 854 289.4 853.6 290.7 853.1 291.1 851.6 290.8 850.8L286.3 837.7 294.6 827.8 303.5 853.4C303.9 854.7 305.4 855.1 306.7 854.6S308.5 853.1 308.1 851.8L298.3 823.7 305.4 815.6 332.2 820.9 335.9 831.8 317.1 853.4C316.5 854.5 316.6 855.9 317.4 857 318 857.3 319 857.4 319.8 857.1 320.2 857 320.6 856.8 320.9 856.3L337.7 836.8 341.9 849 333.6 858.9C332.9 859.6 332.9 861.1 333.8 862.2 334.9 862.7 336.3 862.7 337 862L343.7 854 348.3 867.5C348.6 868.3 350.3 869.1 351.2 868.8 352.4 868.4 353.2 866.7 352.9 865.9L348.3 852.4 358 854.7C358.4 854.6 358.8 854.4 359.3 854.3 360.1 854 360.8 853.3 361.1 852.7 361.1 851.3 360.2 850.2 359.1 849.6L346.5 847.4 342.3 835.2 367.5 840.1C369.1 840.5 370.2 839.7 370.3 838.7 370.7 837.1 369.9 836 368.7 835.5L340.6 830.2 336.8 819.3 354.5 798.5 365.1 800.5 374.8 828.6C375.3 829.9 376.4 830.4 377.7 830 378.9 829.6 379.5 828.4 379 827.2L370.1 801.6 382.8 804.2 387.3 817.2C387.6 818.1 389.3 818.9 390.6 818.5 391.9 818 392.3 816.5 392 815.6L388.3 805.1 403 808C403.4 807.9 403.4 807.9 403.8 807.8 404.7 807.5 405.3 806.8 405.6 806.2 405.6 804.8 404.7 803.7 403.8 803.5ZM335 814.2L332.9 816.4 330.4 815.8 308.7 811.6 306.2 811.1 305.3 808.5 298.2 788 297.3 785.5 298.9 783.5 313.4 766.7 315 764.7 318 765.1 339.2 769.5 342.2 769.9 343.1 772.4 350.2 793 351.1 795.5 349 797.6 335 814.2Z" fill="rgba(51, 121, 194, 0.58)"></path><path d="M539.3 279.9L570.9 296.2 574.6 308.6 563.9 303.1C562.9 302.2 561.7 302.9 560.8 303.8 560.5 304.8 560.9 306.3 561.9 306.6L576.4 314.5 580.4 326.6 568 323.6 559.2 309.6C559.2 309.6 558.9 309.3 558.9 309.3 558.2 308.7 556.9 308.7 556 309.1 555.1 310.1 554.8 311 555.5 312.3L562 322.3 549.6 319.4 530.3 289.8C530.3 289.8 530.3 289.2 530.3 289.2 529.6 288.6 528.4 288.6 527.4 289 526.2 289.7 526 291.2 526.9 292.1L543.5 318.1 528.3 315 520.8 303.4C520.8 303.4 520.8 303.4 520.5 303.1 519.9 302.5 518.9 302.2 518 302.6 517.1 303.6 516.5 304.9 517.2 306.1L522.2 313.7 511.1 311.4C509.8 310.8 509 311.8 508.7 312.8 508.1 314.1 508.8 315.3 510.4 315.5L521.2 318.2 513.5 322.6C512.6 323.6 512.1 324.9 513 325.8 513.7 327 514.7 327.3 515.9 326.6L527.5 319.2 542.5 322.6 516.2 339.5C515.2 339.8 515 341.4 515.7 342.7 516.3 343.3 517.6 343.8 518.8 343.1L548.5 323.9 560.9 326.8 550.8 333.2C549.6 333.9 549.6 335.2 550.3 336.4 550.7 337.3 552.3 337.6 553.2 337.2L566.9 328.1 579.6 330.7 570.9 340.2 554.6 340.9C553.4 341 552.5 342 552.5 343.2 552.2 344.2 553.5 345.4 554.8 345.3L566.7 344.8 558 354.3 522.5 355.6C521.3 355.6 520.4 356.6 520.4 357.9 520.5 359.1 521.5 360 522.7 360L553.8 358.9 543.6 370 529.8 370.7C528.6 370.7 527.7 371.7 527.7 373 527.8 374.2 528.8 375.1 530 375L539.1 375 531.6 383.2C530.7 384.1 530.8 385.4 531.8 386.3 532.8 387.2 534 387.1 534.9 386.2L542.4 378 542.8 386.7C542.9 388 543.9 388.9 545.1 388.8S547.3 387.8 547.2 386.6L546.6 373.4 557.1 361.9 558.5 392.7C558.5 393.9 559.5 394.8 560.8 394.8 562 394.7 562.9 393.7 562.9 392.5L561.3 357.3 570 347.8 570.5 359.7C570.6 361 571.6 361.9 572.8 361.8 574.1 361.8 575 360.8 574.9 359.5L574.2 343.2 582.6 334 586.3 345.8 578.8 360.6C578.5 361.6 578.9 363.1 579.8 363.4 581.1 364 582 363.6 582.9 362.6L588.4 352 592.1 363.8 575.9 395.3C575.3 396.6 575.7 397.5 576.7 398.4 578 399 579.2 398.3 579.8 397.7L594.3 370 598.7 384.9 592.7 396.8C591.8 397.8 592.4 399 593.4 399.9 594.4 400.2 595.9 399.8 596.5 398.5L600.6 390.8 604.2 401.3C604.2 402.6 605.5 403.1 607.1 402.7 608 402.4 608.6 401.1 608.2 400.2L604.9 389.3 613 393.7C614.2 394.2 615.5 393.6 615.7 392.6 616.6 391.6 616.3 390.7 615.6 390.1 615.3 389.8 615.3 389.8 615 389.5L603.1 383.4 598.6 368.5 626 382.7C627 383.6 628.2 382.9 629.1 381.9 629.4 381 629 380.1 628.4 379.5 628 379.2 628 379.2 628 379.2L596.5 362.3 592.8 350.5 603.4 356C604.7 356.6 605.6 356.3 606.5 355.3 606.8 354.3 606.7 353.1 606.1 352.5 605.8 352.2 605.8 352.2 605.4 351.9L590.6 344.3 587 332.6 599 335.2 608.1 348.9C608.8 350.1 610.4 350.4 611.3 350 612.2 349 612.8 347.8 611.8 346.9L605.4 336.8 617.8 339 637 369.3C637.4 370.2 639 370.5 639.9 370.1 640.8 369.2 641.4 367.9 640.7 366.6L624.1 340.6 639.1 344.1 646.2 355.4C646.9 356.6 648.4 356.9 649.3 355.9 650.3 355.5 650.8 354.2 650.2 353L645.1 345.4 656.2 347.7C657.2 348 658.4 347.3 659 346 658.9 345.4 658.6 344.5 657.9 343.9 657.9 343.9 657.6 343.6 657.3 343.3L646.2 340.9 653.8 335.9C654.7 335.5 655 333.9 654.6 333 654.3 332.7 654.3 332.7 654.3 332.7 653.3 331.8 652 331.8 651.4 332.5L640.1 339.6 624.9 336.5 651.2 319.6C652.1 318.6 652.3 317.7 651.7 316.4 651.7 316.4 651.3 316.1 651.3 316.1 650.7 315.5 649.7 315.3 648.5 316L618.5 334.9 606.4 332.3 616.5 325.9C617.4 324.9 618 323.6 617 322.7 617.3 322.4 617 322.1 617 322.1 616.3 321.5 615.1 321.5 614.2 321.9L600.4 331 588 328.1 596.4 318.9 612.7 318.2C614 318.1 615.2 316.8 615.1 315.6 614.8 314.6 613.8 313.7 612.8 313.5L600.6 314.3 609.3 304.8 644.5 303.2C645.7 303.2 646.6 302.2 646.6 300.9 646.5 299.7 645.5 298.8 644.3 298.8L613.5 300.2 624 288.7 637.2 288.2C638.4 288.1 639.3 287.1 639.3 285.9S638.2 283.7 637 283.8L628.2 284.1 635.7 276C636.6 275 636.5 273.7 635.6 272.8 634.6 271.9 633.3 272 632.4 273L624.9 281.2 624.2 272.1C624.2 271.4 624.1 270.8 623.8 270.5 623.5 270.2 622.5 269.9 621.9 270 620.6 270 619.7 271 619.8 272.3L620.7 285.7 610.2 297.2 608.5 266.2C608.5 265.5 608.5 264.9 608.1 264.6 607.8 264.3 606.9 264 606.2 264.1 605 264.1 604.1 265.1 604.1 266.4L606 301.8 597.3 311.3 597.1 299.1C597.1 298.4 596.4 297.8 596.1 297.5 595.8 297.2 595.4 296.9 594.8 297 593.5 297 592.3 298.3 592.7 299.3L593.1 315.9 584.7 325.1 580.7 313 588.6 298.5C588.8 297.5 588.8 296.3 588.1 295.7 587.8 295.4 587.8 295.4 587.5 295.7 586.5 294.8 585 295.2 584.4 296.5L578.9 307.1 574.9 295 591.7 263.4C592 262.5 591.6 261.6 591 261 590.7 260.7 590.7 260.7 590.7 260.7 589.4 260.1 588.1 260.1 587.5 261.4L573.1 289.1 568.6 274.2 574.7 262.3C575.3 261 574.9 260.1 574.2 259.5 574.2 259.5 573.9 259.2 573.9 259.2 572.6 258.6 571.4 259.3 570.8 260L566.8 268.3 563.5 257.5C563.1 257.2 562.8 256.9 562.5 256.6 562.1 256.3 561.2 256 560.6 256 559.3 256.7 558.4 257.7 559.1 258.9L562.4 269.8 554.4 265.4C553.1 264.9 551.9 265.5 551.3 266.2 550.7 267.5 551.4 268.7 552.4 269.6L564.3 275.7 569 290.3 541.6 276.1C540.4 275.5 538.8 275.9 538.5 276.8 538 278.1 538 279.4 539.3 279.9Z" fill="rgba(63, 72, 185, 1)"></path><path d="M853 477.5L820.3 494.2 810.6 491.4 805.7 469.2 813.2 462.1 850 464C850.5 463.9 850.5 463.9 850.9 463.8 851.8 463.6 852.6 463 852.7 461.6 852.4 460.3 851.8 459.5 850.4 459.4L818.2 457.8 829.9 447 844.2 447.6C844.2 447.6 844.6 447.5 844.6 447.5 845.5 447.3 846.2 446.6 846.4 445.2 846.6 444.3 845.5 443.2 844.1 443L834.8 442.3 843.6 434.5C844.3 433.9 844.5 432.5 843.8 431.3S841.3 430.4 840.1 431.2L831.8 438.9 832 429.7C832.2 428.3 831 427.2 829.6 427.1 828.8 427.3 827.6 428 827.4 429.4L826.9 443.6 814.7 454.5 816.3 422.3C816.4 420.9 815.3 419.8 814.3 419.5 813 419.8 811.8 420.5 811.7 421.9L810.2 458.7 802.2 465.9 781.2 459.1 778.9 448.7 798.4 417.6C799.1 416.5 798.8 415.2 797.7 414.5S795.4 414.1 794.7 415.2L777.5 442.6 774 426.6 781.5 414.9C782.1 413.9 781.8 412.6 780.7 411.5S778.3 411.1 777.7 412.1L772.7 420.5 770.1 408.8C769.8 407.5 768.3 406.9 767 407.2 765.7 407.5 765 408.5 765.3 409.8L767.9 421.6 760 416.5C758.8 415.4 757.5 415.7 756.9 417.1 756.2 418.2 756.5 419.5 757.6 420.2L769.2 427.6 772.8 443.7 745.7 426C744.6 425.3 742.9 425.7 742.2 426.8S741.8 429.1 742.9 429.8L774.1 449.8 776.4 460.2 759.7 475.2 749.9 471.9 733.1 439.2C732.4 438 731 437.9 729.7 438.2 728.5 438.9 728.3 440.3 728.6 441.6L743.5 470.1 728.4 465.3 721.9 452.6C721.2 451.4 719.8 451.3 718.5 451.5 717.7 452.2 717.2 453.7 717.9 454.9L722 463.1 710.7 459.6C709.8 459.4 708.6 460.1 707.9 461.2 707.7 462.6 708.5 463.8 709.4 464L720.7 467.5 712.1 472.1C711.3 472.7 710.8 474.2 711.4 475 711.7 476.3 712.6 476.5 713.9 476.2 713.9 476.2 714.4 476.1 714.4 476.1L727.1 469.7 742.2 474.5 713.7 489.5C712.5 490.2 711.8 491.2 712.5 492.5 713.2 493.7 714.2 493.9 715.1 493.7 715.5 493.6 715.5 493.6 715.5 493.6L748.5 476.3 758.4 479.6 763.2 501.8 755.6 508.5 718.4 507.1C717.5 506.8 716.4 508 716.1 508.9 716 510.3 717.1 511.5 718.5 511.6L750.7 513.2 739 523.9 724.8 523.4C723.4 523.3 722.2 524 722.5 525.3 722.3 526.7 723.5 527.8 724.4 528.1L734 528.2 725.3 536.1C724.6 537.1 724.5 538.5 725.2 539.7 725.7 540.1 726.7 540.3 727.5 540.1 728 540 728 540 728.3 539.5L737.1 531.6 736.9 541.2C736.7 542.6 737.8 543.3 738.8 543.6 739.2 543.5 739.2 543.5 739.6 543.4 740.5 543.2 741.3 542.6 741.5 541.6L742 527.4 753.8 516.6 752.2 548.8C752.5 550.1 753.2 551.3 754.5 551 755 551.4 755 551.4 755.5 551.3 756.3 551.1 757 550 757.3 549L758.6 511.9 766.3 505.2 787.8 511.8 790 521.8 770 553.1C769.3 554.1 769.7 555.9 770.7 556.5S773.5 556.8 774.2 555.8L791.4 528.3 794.8 544 787.5 556C786.8 557.1 787.1 558.4 788.1 559.1 789.2 559.8 790.5 559.5 791.2 558.4L796.3 550.5 798.8 562.2C799 563.1 800.2 564.2 801.5 563.9 802.8 563.6 803.8 562 803.6 561.1L801 549.4 809 554.5C809.5 554.8 810 555.2 810.5 555.1 811.3 554.9 811.7 554.4 812 553.8 812.7 552.8 812.4 551.5 811.3 550.8L799.6 542.9 796.2 527.3 823.3 545C823.8 545.3 824.2 545.2 825.1 545 825.5 544.9 826 544.8 826.3 544.3 827 543.3 826.6 541.5 825.5 540.8L794.7 520.8 792.5 510.8 808.8 495.8 819 498.6 835.8 531.8C836.5 532.5 837.5 533.2 838.4 533 838.8 532.9 838.8 532.9 838.7 532.5 840 532.2 840.6 530.7 839.9 529.5L825 500.9 840.6 505.7 847 518.4C847.6 519.2 848.6 519.4 849.5 519.2 849.5 519.2 849.9 519.1 849.9 519.1 851.2 518.8 851.8 517.3 851 516.1L846.4 507.6 857.7 511C858.2 511.4 858.6 511.3 859.1 511.2 859.9 511 860.7 510.4 860.6 509.9 861.2 508.4 860.5 507.2 859.4 506.5L848.2 503.1 856.4 499C857.6 498.3 858.2 496.8 857.5 495.6 856.8 494.8 855.3 494.2 854.6 494.9L841.9 501.3 826.7 496.4 855.3 481.5C856.5 480.8 856.6 479.4 856.3 478.1 855.7 477.3 854.2 476.7 853 477.5ZM801.5 472.9L805.2 489.8 805.8 492.4 803.9 494.2 791.4 505.6 789.1 507.5 786.6 506.6 770.5 501.5 768 500.7 767.4 498.1 763.7 481.2 763.1 478.6 765 476.8 777.5 465.4 779.4 463.6 782.3 464.3 798.5 469.4 800.9 470.3 801.5 472.9Z" fill="rgba(63, 72, 185, 1)"></path></g><defs><mask id="SvgjsMask1030"><rect width="840" height="1000" fill="#ffffff"></rect></mask><filter id="SvgjsFilter1031"><feGaussianBlur stdDeviation="1"></feGaussianBlur></filter></defs></svg>