<?xml version="1.0" standalone="no"?>
<!DOCTYPE svg PUBLIC "-//W3C//DTD SVG 20010904//EN"
 "http://www.w3.org/TR/2001/REC-SVG-20010904/DTD/svg10.dtd">
<svg version="1.0" xmlns="http://www.w3.org/2000/svg"
 width="875.000000pt" height="182.000000pt" viewBox="0 0 875.000000 182.000000"
 preserveAspectRatio="xMidYMid meet">

<g transform="translate(0.000000,182.000000) scale(0.100000,-0.100000)"
fill="#000000" stroke="none">
<path d="M2148 1790 c-66 -12 -144 -57 -185 -107 -60 -73 -122 -248 -123 -348
0 -22 7 -53 16 -70 13 -24 16 -87 19 -370 2 -210 8 -361 16 -395 26 -120 112
-241 211 -295 48 -27 62 -30 143 -30 127 0 195 23 260 89 62 61 110 159 126
253 15 88 14 634 -1 854 -11 153 -14 168 -43 222 -36 68 -109 136 -186 174
-59 29 -166 39 -253 23z m192 -42 c100 -30 176 -93 236 -195 23 -40 26 -53 21
-117 -4 -65 -15 -128 -39 -228 -7 -30 -17 -42 -48 -58 -47 -24 -54 -35 -69
-120 -17 -92 -30 -127 -48 -134 -40 -16 -43 6 -43 265 0 136 -4 259 -10 273
-24 64 -88 86 -127 44 -29 -32 -41 -79 -49 -190 -8 -112 -17 -127 -62 -104
-21 11 -35 29 -44 58 -18 53 -55 78 -90 60 -12 -6 -33 -19 -44 -27 -20 -14
-23 -14 -38 0 -47 47 27 311 111 397 83 85 214 114 343 76z m-51 -299 c11 -12
23 -40 26 -63 3 -23 4 -220 3 -438 -3 -391 -3 -398 -24 -419 -50 -49 -88 13
-98 156 -9 135 -8 545 2 648 12 128 43 167 91 116z m-289 -304 c16 -20 5 -45
-20 -45 -14 0 -20 7 -20 23 0 38 18 48 40 22z m585 -135 c7 -11 -11 -40 -24
-40 -3 0 -12 4 -20 9 -12 8 -12 12 -2 25 15 18 37 21 46 6z"/>
<path d="M5341 1790 c-119 -25 -192 -92 -252 -230 -49 -115 -63 -230 -36 -302
13 -36 17 -104 20 -403 3 -333 5 -364 23 -413 47 -120 134 -215 234 -253 45
-17 69 -20 135 -16 44 3 103 13 132 22 93 31 175 132 219 270 21 67 31 625 15
879 -10 154 -15 187 -35 232 -34 74 -104 145 -180 184 -54 27 -77 33 -148 36
-45 2 -103 -1 -127 -6z m217 -51 c74 -27 122 -61 167 -120 76 -100 89 -149 64
-244 -6 -22 -15 -67 -20 -100 -13 -83 -26 -111 -59 -125 -44 -18 -56 -39 -75
-125 -21 -98 -35 -130 -60 -130 -31 0 -36 47 -29 265 7 220 0 276 -39 318 -26
28 -79 30 -106 3 -23 -23 -38 -88 -47 -209 -5 -67 -11 -92 -22 -97 -23 -9 -55
18 -82 70 -36 69 -50 75 -105 46 -69 -36 -78 -27 -73 72 7 108 60 246 120 306
93 96 224 121 366 70z m-67 -296 c18 -21 31 -601 18 -777 -11 -140 -23 -165
-69 -141 -41 21 -49 90 -51 450 -1 306 8 442 31 470 17 20 54 19 71 -2z m-293
-316 c3 -22 -1 -27 -18 -27 -26 0 -37 25 -20 45 18 22 34 13 38 -18z m578
-118 c10 -17 -23 -46 -37 -32 -7 7 -9 19 -6 27 7 18 33 21 43 5z"/>
<path d="M353 1772 c-73 -22 -189 -104 -224 -159 -62 -96 -64 -107 -64 -373 1
-274 8 -314 70 -400 51 -70 114 -110 230 -145 72 -22 115 -61 115 -104 0 -20
-7 -34 -19 -41 -12 -6 -94 -10 -198 -10 -126 0 -183 -4 -191 -12 -8 -8 -12
-57 -12 -155 0 -128 2 -145 19 -162 28 -28 80 -33 301 -29 178 3 199 5 240 25
144 71 221 239 207 453 -6 102 -27 149 -92 209 -48 44 -162 103 -225 116 -48
10 -86 31 -104 57 -19 26 -21 150 -6 292 9 91 14 101 59 113 39 10 57 -23 65
-119 5 -60 11 -86 23 -95 11 -9 56 -13 133 -13 146 0 153 5 158 117 10 189
-72 350 -211 417 -72 35 -189 43 -274 18z m191 -37 c106 -28 192 -108 231
-216 14 -40 15 -52 5 -64 -7 -8 -18 -15 -25 -15 -7 0 -18 -7 -25 -15 -6 -7
-36 -28 -67 -45 -64 -36 -71 -33 -109 42 -13 26 -33 52 -43 58 -33 17 -76 12
-104 -14 -30 -28 -34 -43 -40 -141 -6 -97 -20 -123 -74 -137 -24 -6 -46 -14
-49 -19 -3 -5 -15 -9 -28 -9 -25 0 -37 20 -56 89 -6 23 -25 57 -42 77 -29 33
-31 38 -25 98 4 37 17 87 32 119 25 53 99 133 156 169 61 39 166 48 263 23z
m226 -390 c0 -19 -13 -25 -30 -15 -11 7 -11 11 -1 24 15 17 31 13 31 -9z
m-592 -319 c-2 -13 -10 -21 -23 -21 -23 0 -33 34 -14 45 20 13 40 -1 37 -24z"/>
<path d="M959 1771 c-24 -19 -24 -21 -21 -195 1 -97 7 -187 12 -202 6 -15 10
-243 10 -579 l0 -555 25 -16 c20 -13 46 -15 138 -13 77 3 119 8 130 18 15 12
17 53 17 399 0 217 4 382 9 376 10 -11 106 -309 120 -374 5 -25 12 -119 16
-209 3 -97 10 -170 16 -178 15 -18 248 -19 272 0 16 11 18 57 22 522 2 281 7
614 11 740 8 294 15 280 -144 280 -97 0 -114 -3 -139 -21 -15 -11 -31 -32 -34
-45 -4 -13 -7 -92 -8 -176 -1 -83 -5 -154 -10 -158 -14 -8 -33 59 -36 124 -3
62 -34 168 -65 219 -30 50 -71 62 -204 62 -97 0 -117 -3 -137 -19z m162 -35
c41 -8 90 -13 108 -12 35 1 35 1 68 -83 47 -120 45 -145 -17 -206 -48 -48 -50
-51 -50 -105 0 -47 -7 -70 -42 -136 -22 -43 -46 -82 -52 -86 -19 -13 -34 12
-46 79 -15 89 -30 120 -79 170 l-41 41 0 166 c0 205 -3 201 151 172z m569 4
c22 -14 17 -392 -6 -427 -22 -34 -58 -49 -88 -35 -20 9 -24 20 -28 67 -6 66
-31 105 -78 121 -19 6 -37 20 -41 30 -11 25 1 226 14 242 12 15 204 17 227 2z
m-295 -520 c0 -8 -8 -16 -17 -18 -13 -2 -18 3 -18 18 0 15 5 20 18 18 9 -2 17
-10 17 -18z m245 -99 c0 -19 -23 -35 -34 -24 -14 15 -5 43 14 43 13 0 20 -7
20 -19z m-580 -120 c0 -28 -26 -47 -45 -31 -11 9 -12 17 -4 31 13 25 49 25 49
0z"/>
<path d="M2837 1775 c-38 -7 -74 -18 -80 -24 -9 -9 -11 -79 -10 -254 1 -133 2
-357 2 -497 0 -140 5 -322 11 -403 12 -176 31 -228 114 -311 64 -63 101 -82
193 -96 63 -10 79 -9 140 9 37 11 83 30 102 42 l34 20 56 -29 c89 -47 143 -56
230 -37 167 35 274 139 325 317 13 47 16 110 16 378 0 239 3 327 13 343 9 16
12 88 12 260 l0 239 -33 29 c-19 17 -44 29 -60 29 -53 0 -225 -39 -240 -54
-23 -23 -39 -222 -24 -284 9 -32 12 -140 11 -337 -1 -159 2 -306 5 -325 4 -19
3 -82 -2 -139 -7 -83 -13 -107 -28 -118 -26 -19 -52 -16 -78 10 -21 21 -25 37
-31 132 -4 62 -2 250 5 435 17 412 17 608 2 637 -21 38 -75 47 -192 32 -99
-13 -105 -15 -121 -44 -16 -27 -17 -44 -8 -160 12 -167 1 -957 -15 -1005 -15
-48 -57 -63 -88 -32 -26 25 -37 136 -37 382 -1 136 1 159 18 186 18 29 20 57
23 332 l3 300 -24 26 c-22 24 -31 26 -100 25 -42 -1 -107 -7 -144 -14z m221
-37 c9 -9 12 -89 12 -299 0 -262 -2 -289 -18 -309 -17 -21 -19 -21 -34 -6 -14
14 -38 95 -38 130 0 7 -9 25 -21 40 -29 37 -74 35 -115 -5 -58 -57 -62 -47
-66 203 -2 123 -2 228 0 235 7 21 260 31 280 11z m442 -18 c9 -22 10 -69 5
-180 -8 -165 -11 -172 -65 -126 -16 13 -47 26 -69 30 -46 7 -61 30 -61 89 0
35 -21 72 -63 111 -31 29 -35 56 -9 79 13 12 43 17 112 20 52 1 105 4 116 5
15 1 25 -7 34 -28z m434 15 c8 -9 19 -32 23 -53 10 -44 9 -377 -1 -415 -4 -18
-18 -32 -41 -41 -24 -10 -40 -26 -50 -50 -8 -20 -22 -52 -30 -71 -34 -80 -59
-19 -51 120 7 106 -5 200 -28 223 -8 8 -29 17 -47 21 l-34 7 0 115 c0 156 -2
155 162 158 61 1 85 -3 97 -14z m-538 -440 c4 -8 0 -22 -7 -31 -11 -13 -14
-13 -27 0 -17 17 -9 46 13 46 9 0 18 -7 21 -15z m-509 -181 c3 -8 -1 -22 -9
-30 -13 -13 -16 -13 -28 0 -10 13 -10 19 0 31 16 19 29 19 37 -1z m1007 -139
c5 -15 -18 -45 -35 -45 -13 0 -22 27 -15 45 7 19 42 19 50 0z m-494 -91 c0
-19 -5 -24 -25 -24 -20 0 -25 5 -25 24 0 13 6 26 13 29 22 7 37 -4 37 -29z"/>
<path d="M4415 1763 c-46 -20 -83 -28 -156 -32 -117 -7 -130 -16 -154 -106
-22 -82 -17 -174 12 -213 21 -28 21 -39 26 -616 4 -521 7 -589 21 -605 32 -35
235 -51 381 -31 133 19 173 37 251 115 50 50 81 90 105 140 30 64 33 78 34
165 0 123 -22 194 -76 247 -21 21 -39 42 -39 46 0 5 11 23 24 40 46 61 57 125
63 353 6 209 6 212 -19 265 -49 107 -169 211 -280 243 -78 22 -123 20 -193
-11z m232 -43 c60 -25 168 -132 202 -197 24 -49 27 -116 6 -153 -9 -15 -15
-55 -15 -100 0 -45 -6 -85 -15 -100 -8 -14 -14 -41 -15 -60 0 -60 -19 -110
-40 -110 -26 0 -50 38 -50 78 0 34 -10 46 -89 113 -28 24 -31 32 -31 86 0 108
-32 153 -85 119 -20 -13 -55 -98 -55 -134 0 -21 -32 -42 -63 -42 -48 -1 -62
-18 -81 -95 -21 -89 -45 -145 -62 -145 -18 0 -20 16 -33 192 -10 153 -23 200
-71 259 -39 47 -22 216 24 242 12 6 42 14 68 17 39 5 45 4 36 -7 -6 -7 -19
-13 -29 -13 -22 0 -35 -18 -22 -31 13 -13 69 8 133 52 30 20 71 42 90 48 50
15 138 7 197 -19z m-93 -372 c3 -13 7 -51 9 -86 3 -34 11 -69 17 -77 17 -20 9
-187 -10 -210 -9 -11 -26 -15 -54 -13 l-41 3 -3 110 c-3 91 1 122 19 180 32
101 37 115 49 115 5 0 12 -10 14 -22z m149 -372 c8 -21 -17 -50 -37 -43 -16 6
-22 38 -9 50 11 12 41 7 46 -7z m-319 -42 c20 -19 20 -29 1 -48 -13 -13 -20
-13 -35 -3 -24 15 -25 25 -3 49 20 22 18 22 37 2z m186 -292 c18 -14 24 -32
28 -75 6 -73 -5 -87 -69 -87 l-49 0 0 90 0 90 34 0 c19 0 44 -8 56 -18z"/>
<path d="M5974 1767 c-28 -24 -29 -28 -32 -135 -3 -78 0 -116 9 -133 10 -19
13 -100 11 -374 -1 -192 2 -466 6 -608 7 -242 8 -260 27 -273 16 -12 45 -15
137 -12 64 2 119 6 123 10 11 11 24 188 25 331 l0 137 30 0 c20 0 34 -7 44
-22 8 -13 47 -121 87 -240 64 -190 76 -218 96 -223 24 -6 241 13 257 22 19 12
-21 154 -79 280 -8 17 -15 37 -15 45 0 8 -4 18 -9 23 -5 6 -22 49 -39 98 l-30
87 22 28 c72 88 86 154 86 402 0 195 -18 329 -53 397 -22 41 -123 113 -212
149 -67 27 -78 29 -266 32 l-196 4 -29 -25z m476 -45 c118 -47 186 -109 212
-193 9 -33 8 -45 -11 -88 -16 -38 -21 -70 -21 -139 0 -64 -4 -93 -14 -101 -19
-16 -30 1 -51 79 -20 75 -59 120 -103 120 -16 0 -43 13 -66 32 -27 22 -51 32
-86 36 -52 5 -56 2 -102 -67 -35 -53 -45 -49 -53 18 -12 102 -60 137 -124 90
-16 -12 -34 -18 -40 -15 -16 10 -15 228 2 245 9 9 58 12 207 9 171 -4 202 -7
250 -26z m-88 -309 c16 -14 18 -34 18 -178 0 -175 -4 -189 -53 -198 -42 -7
-47 18 -47 219 l0 174 32 0 c17 0 40 -7 50 -17z m-287 -63 c0 -29 -38 -41 -48
-16 -10 26 4 47 27 44 15 -2 21 -10 21 -28z m130 -240 c3 -6 -1 -13 -10 -16
-19 -8 -30 0 -20 15 8 14 22 14 30 1z m313 -38 c2 -13 -3 -25 -13 -28 -23 -9
-38 10 -30 36 9 27 39 22 43 -8z"/>
<path d="M6970 1776 c-14 -8 -31 -29 -37 -48 -34 -96 -43 -264 -18 -320 12
-27 16 -136 22 -614 7 -469 11 -584 22 -597 12 -15 45 -17 288 -17 295 0 353
7 373 44 8 16 11 62 8 140 -3 103 -5 119 -22 132 -15 11 -57 14 -177 14 -133
0 -159 2 -170 17 -9 10 -15 49 -17 103 l-4 88 104 6 c192 12 198 14 214 52 21
50 19 247 -2 265 -14 12 -156 27 -271 28 l-43 1 0 100 c0 54 4 109 9 122 6 13
12 44 16 69 l6 46 63 11 c85 16 127 15 165 -4 28 -14 34 -14 55 -1 41 27 67
99 67 186 0 42 -4 89 -10 103 -11 31 -53 55 -126 74 -71 19 -480 19 -515 0z
m240 -34 c0 -8 -29 -19 -98 -37 -13 -4 -21 -12 -19 -18 7 -23 63 -18 137 14
118 49 150 55 237 40 100 -17 101 -17 113 -59 21 -78 7 -184 -30 -217 -17 -15
-25 -16 -67 -5 -38 9 -67 9 -143 -2 l-95 -14 -13 -59 c-17 -76 -40 -130 -63
-151 -18 -17 -19 -15 -19 58 0 92 -12 108 -65 89 -32 -11 -37 -10 -89 25 l-56
37 0 71 c1 97 23 206 46 223 20 15 224 19 224 5z m-142 -518 c4 -25 -22 -49
-43 -40 -31 12 -9 70 25 64 8 -2 16 -13 18 -24z m387 -244 c0 -18 -6 -26 -23
-28 -13 -2 -25 3 -28 12 -10 26 4 48 28 44 17 -2 23 -10 23 -28z"/>
<path d="M8091 1759 c-64 -31 -64 -31 -181 -24 -139 8 -151 2 -176 -87 -20
-68 -13 -115 21 -152 l24 -26 4 -635 c3 -484 6 -638 16 -648 9 -9 70 -12 224
-12 249 0 304 11 381 78 58 49 86 92 115 176 37 108 43 196 42 594 -1 338 -3
385 -20 450 -27 101 -29 105 -82 173 -110 139 -235 178 -368 113z m225 -41
c47 -23 134 -109 159 -158 20 -39 45 -154 45 -207 0 -35 -6 -53 -22 -71 -16
-16 -29 -53 -43 -119 -13 -64 -26 -100 -37 -107 -25 -15 -37 0 -54 75 -8 35
-30 89 -48 119 -18 30 -40 72 -47 94 -16 45 -61 86 -95 86 -13 0 -38 -9 -56
-20 -18 -11 -49 -20 -68 -20 -49 0 -58 -9 -75 -68 -17 -57 -42 -79 -69 -59
-11 8 -18 33 -22 82 -8 106 -11 113 -64 151 -57 41 -67 69 -50 148 10 48 15
55 39 61 15 3 61 -1 102 -10 110 -23 245 -31 264 -15 21 18 9 30 -31 30 -41 0
-44 14 -6 29 40 16 125 6 178 -21z m-112 -349 l27 -21 -3 -392 c-3 -355 -5
-394 -21 -419 -13 -20 -26 -27 -51 -27 l-33 0 -7 413 c-4 226 -4 420 0 430 6
16 34 34 55 36 4 1 18 -9 33 -20z m-170 -182 c13 -21 -15 -53 -38 -44 -19 8
-21 38 -4 55 15 15 28 11 42 -11z m336 -212 c16 -20 6 -45 -19 -45 -23 0 -32
18 -19 43 11 21 22 22 38 2z"/>
</g>
</svg>
